<svg width="103" height="35" viewBox="0 0 103 35" fill="none" xmlns="http://www.w3.org/2000/svg">
<mask id="path-1-inside-1_1016_601" fill="white">
<path fill-rule="evenodd" clip-rule="evenodd" d="M59.9534 34.4726C58.1562 34.4761 56.3159 34.4749 54.4354 34.4737C53.4675 34.4731 52.4889 34.4724 51.5 34.4724C50.5111 34.4724 49.5325 34.4731 48.5646 34.4737C34.5995 34.4828 22.8546 34.4905 14.4356 32.5553C9.94099 31.5222 6.46045 29.9481 4.10605 27.5817C1.7701 25.2338 0.495987 22.0585 0.495987 17.7001C0.495987 13.3417 1.77026 10.1394 4.10877 7.75286C6.4648 5.34845 9.9467 3.72521 14.4404 2.64239C23.2363 0.522936 35.6667 0.523892 50.4639 0.52503C50.808 0.525057 51.1534 0.525083 51.5 0.525083C51.8466 0.525083 52.192 0.525057 52.5361 0.52503C67.3333 0.523892 79.7637 0.522936 88.5596 2.64239C93.0533 3.72521 96.5352 5.34845 98.8912 7.75286C101.23 10.1394 102.504 13.3417 102.504 17.7001C102.504 22.0585 101.23 25.2338 98.894 27.5817C96.5396 29.9481 93.059 31.5222 88.5644 32.5553C82.7871 33.8833 75.4437 34.2963 66.8914 34.4219C69.6338 34.1308 72.282 33.7733 74.7566 33.3647C78.2398 32.7895 81.3826 32.1124 83.9627 31.3751C86.5368 30.6395 88.571 29.8386 89.8228 29.0077C89.9388 28.9307 89.9739 28.7687 89.9011 28.6459C89.8283 28.5231 89.6753 28.486 89.5593 28.563C88.3724 29.3507 86.3974 30.1356 83.8334 30.8683C81.2754 31.5993 78.1511 32.2728 74.6802 32.846C70.187 33.588 65.1184 34.1608 59.9534 34.4726ZM59.9648 34.9977C85.784 34.9468 103 33.9061 103 17.7001C103 -0.00429215 82.4533 -0.00251728 52.5895 6.19087e-05C52.2277 9.31556e-05 51.8645 0.000124521 51.5 0.000124521C51.1355 0.000124521 50.7723 9.31558e-05 50.4105 6.1909e-05C20.5467 -0.00251728 0 -0.00429215 0 17.7001C0 35.0315 19.6901 35.0182 48.5356 34.9987C49.4323 34.9981 50.3379 34.9975 51.252 34.9974C51.3346 34.9974 51.4173 34.9974 51.5 34.9974C52.4984 34.9974 53.4867 34.9981 54.4644 34.9987C56.3374 35 58.1719 35.0012 59.9648 34.9977Z"/>
</mask>
<path fill-rule="evenodd" clip-rule="evenodd" d="M59.9534 34.4726C58.1562 34.4761 56.3159 34.4749 54.4354 34.4737C53.4675 34.4731 52.4889 34.4724 51.5 34.4724C50.5111 34.4724 49.5325 34.4731 48.5646 34.4737C34.5995 34.4828 22.8546 34.4905 14.4356 32.5553C9.94099 31.5222 6.46045 29.9481 4.10605 27.5817C1.7701 25.2338 0.495987 22.0585 0.495987 17.7001C0.495987 13.3417 1.77026 10.1394 4.10877 7.75286C6.4648 5.34845 9.9467 3.72521 14.4404 2.64239C23.2363 0.522936 35.6667 0.523892 50.4639 0.52503C50.808 0.525057 51.1534 0.525083 51.5 0.525083C51.8466 0.525083 52.192 0.525057 52.5361 0.52503C67.3333 0.523892 79.7637 0.522936 88.5596 2.64239C93.0533 3.72521 96.5352 5.34845 98.8912 7.75286C101.23 10.1394 102.504 13.3417 102.504 17.7001C102.504 22.0585 101.23 25.2338 98.894 27.5817C96.5396 29.9481 93.059 31.5222 88.5644 32.5553C82.7871 33.8833 75.4437 34.2963 66.8914 34.4219C69.6338 34.1308 72.282 33.7733 74.7566 33.3647C78.2398 32.7895 81.3826 32.1124 83.9627 31.3751C86.5368 30.6395 88.571 29.8386 89.8228 29.0077C89.9388 28.9307 89.9739 28.7687 89.9011 28.6459C89.8283 28.5231 89.6753 28.486 89.5593 28.563C88.3724 29.3507 86.3974 30.1356 83.8334 30.8683C81.2754 31.5993 78.1511 32.2728 74.6802 32.846C70.187 33.588 65.1184 34.1608 59.9534 34.4726ZM59.9648 34.9977C85.784 34.9468 103 33.9061 103 17.7001C103 -0.00429215 82.4533 -0.00251728 52.5895 6.19087e-05C52.2277 9.31556e-05 51.8645 0.000124521 51.5 0.000124521C51.1355 0.000124521 50.7723 9.31558e-05 50.4105 6.1909e-05C20.5467 -0.00251728 0 -0.00429215 0 17.7001C0 35.0315 19.6901 35.0182 48.5356 34.9987C49.4323 34.9981 50.3379 34.9975 51.252 34.9974C51.3346 34.9974 51.4173 34.9974 51.5 34.9974C52.4984 34.9974 53.4867 34.9981 54.4644 34.9987C56.3374 35 58.1719 35.0012 59.9648 34.9977Z" fill="#21073A"/>
<path d="M59.9534 34.4726L60.001 58.4725C60.4675 58.4716 60.9339 58.4571 61.3996 58.429L59.9534 34.4726ZM54.4354 34.4737L54.4198 58.4737H54.4198L54.4354 34.4737ZM48.5646 34.4737L48.5802 58.4737H48.5802L48.5646 34.4737ZM14.4356 32.5553L9.0592 55.9454H9.0592L14.4356 32.5553ZM4.10605 27.5817L-12.9078 44.5089L-12.9078 44.5089L4.10605 27.5817ZM4.10877 7.75286L-13.0334 -9.04436L4.10877 7.75286ZM14.4404 2.64239L20.0626 25.9746H20.0626L14.4404 2.64239ZM50.4639 0.52503L50.462 24.525L50.4639 0.52503ZM52.5361 0.52503L52.538 24.525L52.5361 0.52503ZM88.5596 2.64239L94.1817 -20.6898L94.1817 -20.6898L88.5596 2.64239ZM98.8912 7.75286L81.7491 24.5501L81.7491 24.5501L98.8912 7.75286ZM98.894 27.5817L81.8801 10.6545L81.8801 10.6545L98.894 27.5817ZM88.5644 32.5553L83.188 9.16528L83.188 9.16528L88.5644 32.5553ZM66.8914 34.4219L64.3582 10.5559C51.5999 11.9101 42.1628 23.0593 42.9349 35.8661C43.7069 48.6729 54.415 58.6076 67.2436 58.4193L66.8914 34.4219ZM74.7566 33.3647L70.8464 9.68536V9.68536L74.7566 33.3647ZM83.9627 31.3751L90.5568 54.4514L90.5569 54.4514L83.9627 31.3751ZM89.8228 29.0077L76.5507 9.01145L76.5504 9.01163L89.8228 29.0077ZM89.9011 28.6459L110.549 16.4122L110.548 16.4108L89.9011 28.6459ZM89.5593 28.563L76.2868 8.56693L76.2868 8.56694L89.5593 28.563ZM83.8334 30.8683L77.2392 7.79198L77.2392 7.79198L83.8334 30.8683ZM74.6802 32.846L78.5904 56.5253H78.5904L74.6802 32.846ZM59.9648 34.9977L60.0121 58.9976H60.0121L59.9648 34.9977ZM52.5895 6.19087e-05L52.5874 -23.9999L52.5895 6.19087e-05ZM50.4105 6.1909e-05L50.4126 -23.9999L50.4105 6.1909e-05ZM48.5356 34.9987L48.5194 10.9987H48.5194L48.5356 34.9987ZM51.252 34.9974L51.2497 10.9974H51.2495L51.252 34.9974ZM54.4644 34.9987L54.4482 58.9987H54.4482L54.4644 34.9987ZM59.9058 10.4726C58.1457 10.4761 56.3376 10.4749 54.4511 10.4737L54.4198 58.4737C56.2942 58.4749 58.1666 58.4762 60.001 58.4725L59.9058 10.4726ZM54.4511 10.4737C53.4844 10.4731 52.498 10.4724 51.5 10.4724V58.4724C52.4798 58.4724 53.4506 58.4731 54.4198 58.4737L54.4511 10.4737ZM51.5 10.4724C50.502 10.4724 49.5156 10.4731 48.5489 10.4737L48.5802 58.4737C49.5494 58.4731 50.5202 58.4724 51.5 58.4724V10.4724ZM48.5489 10.4737C33.3999 10.4836 24.9306 10.3418 19.812 9.16528L9.0592 55.9454C20.7785 58.6392 35.7992 58.482 48.5802 58.4737L48.5489 10.4737ZM19.812 9.16528C18.779 8.92783 18.5193 8.77307 18.7501 8.8825C19.0166 9.00881 19.9831 9.5119 21.1199 10.6545L-12.9078 44.5089C-6.02167 51.4302 2.46812 54.4304 9.0592 55.9454L19.812 9.16528ZM21.1199 10.6545C22.3239 11.8647 23.3019 13.3772 23.9038 14.9862C24.4715 16.5039 24.496 17.5446 24.496 17.7001H-23.504C-23.504 27.1971 -20.502 36.8758 -12.9078 44.5089L21.1199 10.6545ZM24.496 17.7001C24.496 17.8591 24.4706 18.8719 23.922 20.3479C23.3419 21.9087 22.4026 23.3748 21.2509 24.5501L-13.0334 -9.04436C-20.5065 -1.41778 -23.504 8.20213 -23.504 17.7001H24.496ZM21.2509 24.5501C20.1624 25.661 19.2388 26.1537 18.9893 26.2753C18.7745 26.38 19.0404 26.2209 20.0626 25.9746L8.81831 -20.6898C2.18669 -19.0919 -6.23065 -15.9868 -13.0334 -9.04436L21.2509 24.5501ZM20.0626 25.9746C25.4159 24.6847 34.4065 24.5238 50.462 24.525L50.4657 -23.475C36.9269 -23.476 21.0568 -23.6388 8.81831 -20.6898L20.0626 25.9746ZM50.462 24.525C50.806 24.5251 51.1523 24.5251 51.5 24.5251V-23.4749C51.1544 -23.4749 50.81 -23.4749 50.4657 -23.475L50.462 24.525ZM51.5 24.5251C51.8477 24.5251 52.194 24.5251 52.538 24.525L52.5343 -23.475C52.19 -23.4749 51.8456 -23.4749 51.5 -23.4749V24.5251ZM52.538 24.525C68.5935 24.5238 77.5841 24.6847 82.9374 25.9746L94.1817 -20.6898C81.9432 -23.6388 66.0731 -23.476 52.5343 -23.475L52.538 24.525ZM82.9374 25.9746C83.9596 26.2209 84.2255 26.38 84.0107 26.2753C83.7612 26.1537 82.8376 25.661 81.7491 24.5501L116.033 -9.04434C109.231 -15.9868 100.813 -19.0919 94.1817 -20.6898L82.9374 25.9746ZM81.7491 24.5501C80.5974 23.3748 79.6581 21.9087 79.078 20.3479C78.5294 18.8719 78.504 17.8591 78.504 17.7001H126.504C126.504 8.20213 123.507 -1.41779 116.033 -9.04438L81.7491 24.5501ZM78.504 17.7001C78.504 17.5446 78.5285 16.5039 79.0962 14.9862C79.6981 13.3772 80.6761 11.8647 81.8801 10.6545L115.908 44.5089C123.502 36.8758 126.504 27.1971 126.504 17.7001H78.504ZM81.8801 10.6545C83.0169 9.51191 83.9834 9.00882 84.2499 8.8825C84.4807 8.77307 84.221 8.92783 83.188 9.16528L93.9408 55.9454C100.532 54.4304 109.022 51.4302 115.908 44.5088L81.8801 10.6545ZM83.188 9.16528C80.1135 9.87198 75.0143 10.3001 66.5392 10.4245L67.2436 58.4193C75.8731 58.2926 85.4608 57.8946 93.9408 55.9454L83.188 9.16528ZM69.4245 58.2878C72.5971 57.9511 75.7057 57.533 78.6668 57.044L70.8464 9.68536C68.8583 10.0137 66.6705 10.3105 64.3582 10.5559L69.4245 58.2878ZM78.6668 57.044C82.7734 56.3659 86.8566 55.5088 90.5568 54.4514L77.3685 8.29879C75.9085 8.716 73.7062 9.21313 70.8464 9.68536L78.6668 57.044ZM90.5569 54.4514C93.6746 53.5605 98.6488 51.9551 103.095 49.0038L76.5504 9.01163C77.223 8.56523 77.7433 8.29072 78.0103 8.15729C78.1559 8.08449 78.2663 8.03373 78.3352 8.00302C78.4048 7.97206 78.4441 7.95619 78.4494 7.95406C78.455 7.95184 78.3677 7.9868 78.1716 8.05241C77.9785 8.11703 77.7129 8.20039 77.3685 8.29879L90.5569 54.4514ZM103.095 49.004C114.287 41.5757 116.87 27.0803 110.549 16.4122L69.2532 40.8796C63.078 30.4572 65.5909 16.2858 76.5507 9.01145L103.095 49.004ZM110.548 16.4108C103.783 4.99497 88.348 0.561288 76.2868 8.56693L102.832 48.5591C91.0025 56.4107 75.8733 52.0512 69.254 40.8811L110.548 16.4108ZM76.2868 8.56694C76.9835 8.10455 77.5244 7.81957 77.8024 7.68073C78.0955 7.53435 78.2664 7.4661 78.2749 7.46267C78.2901 7.45659 78.2115 7.48843 78.0231 7.5515C77.8378 7.61355 77.5786 7.69501 77.2392 7.79198L90.4276 53.9446C93.5327 53.0573 98.4492 51.468 102.832 48.5591L76.2868 8.56694ZM77.2392 7.79198C75.8013 8.20286 73.6175 8.69646 70.77 9.16668L78.5904 56.5253C82.6847 55.8492 86.7495 54.9957 90.4276 53.9446L77.2392 7.79198ZM70.77 9.16668C67.1341 9.76707 62.8895 10.2516 58.5072 10.5162L61.3996 58.429C67.3473 58.0699 73.2399 57.4088 78.5904 56.5253L70.77 9.16668ZM79 17.7001C79 17.2435 79.2467 14.4857 81.6075 11.7038C83.6132 9.34025 85.3877 9.07833 84.1764 9.44701C82.9436 9.82221 80.4462 10.3011 75.9474 10.6081C71.5639 10.9073 66.3396 10.9851 59.9175 10.9977L60.0121 58.9976C71.9603 58.9741 86.5598 58.8956 98.1528 55.3672C104.473 53.4435 112.165 49.8796 118.206 42.7614C124.601 35.2248 127 26.2597 127 17.7001H79ZM52.5916 24.0001C60.205 23.9994 66.5074 24.0037 71.9843 24.2506C77.5591 24.5018 81.061 24.9667 83.1855 25.4966C85.4255 26.0553 84.0179 26.1751 82.02 24.0966C79.3828 21.353 79 18.3298 79 17.7001H127C127 8.21826 124.049 -1.44389 116.626 -9.16647C109.842 -16.2239 101.431 -19.423 94.8018 -21.0766C82.3783 -24.1753 66.2134 -24.0011 52.5874 -23.9999L52.5916 24.0001ZM51.5 24.0001C51.8657 24.0001 52.2299 24.0001 52.5916 24.0001L52.5874 -23.9999C52.2254 -23.9999 51.8633 -23.9999 51.5 -23.9999V24.0001ZM50.4084 24.0001C50.7701 24.0001 51.1343 24.0001 51.5 24.0001V-23.9999C51.1367 -23.9999 50.7746 -23.9999 50.4126 -23.9999L50.4084 24.0001ZM24 17.7001C24 18.3298 23.6172 21.353 20.98 24.0966C18.9821 26.1751 17.5745 26.0553 19.8145 25.4966C21.939 24.9667 25.441 24.5018 31.0157 24.2506C36.4926 24.0037 42.795 23.9994 50.4084 24.0001L50.4126 -23.9999C36.7866 -24.0011 20.6217 -24.1753 8.19815 -21.0766C1.56854 -19.423 -6.84227 -16.2239 -13.6259 -9.16647C-21.0488 -1.44389 -24 8.21826 -24 17.7001H24ZM48.5194 10.9987C41.1575 11.0037 35.1093 11.0027 29.8665 10.7657C24.5243 10.5243 21.2591 10.076 19.345 9.59106C17.3397 9.08302 18.9119 9.04987 20.9889 11.2525C23.6528 14.0777 24 17.1193 24 17.7001H-24C-24 26.9467 -21.1915 36.4859 -13.9343 44.1824C-7.26402 51.2564 1.03354 54.4683 7.55646 56.1209C19.699 59.1973 35.4621 59.0076 48.5518 58.9987L48.5194 10.9987ZM51.2495 10.9974C50.3273 10.9975 49.4146 10.9981 48.5194 10.9987L48.5518 58.9987C49.45 58.9981 50.3485 58.9975 51.2545 58.9974L51.2495 10.9974ZM51.5 10.9974C51.4206 10.9974 51.3336 10.9974 51.2497 10.9974L51.2543 58.9974C51.3356 58.9974 51.414 58.9974 51.5 58.9974V10.9974ZM54.4807 10.9987C53.5041 10.9981 52.5078 10.9974 51.5 10.9974V58.9974C52.4889 58.9974 53.4692 58.998 54.4482 58.9987L54.4807 10.9987ZM59.9175 10.9977C58.1619 11.0012 56.3597 11 54.4806 10.9987L54.4482 58.9987C56.3152 59 58.1819 59.0012 60.0121 58.9976L59.9175 10.9977Z" fill="#AB04FF" mask="url(#path-1-inside-1_1016_601)"/>
</svg>
