<svg width="105" height="43" viewBox="0 0 105 43" fill="none" xmlns="http://www.w3.org/2000/svg">
<mask id="path-1-inside-1_1016_637" fill="white">
<path fill-rule="evenodd" clip-rule="evenodd" d="M61.1176 42.352C59.2854 42.3564 57.4094 42.3549 55.4924 42.3534C54.5057 42.3526 53.5081 42.3518 52.5 42.3518C51.4919 42.3518 50.4943 42.3526 49.5076 42.3534C35.2714 42.3646 23.2983 42.374 14.7159 39.9965C10.134 38.7273 6.58589 36.7934 4.18578 33.8861C1.80447 31.0015 0.505618 27.1004 0.505618 21.7458C0.505618 16.3912 1.80464 12.457 4.18855 9.52494C6.59033 6.57095 10.1398 4.57668 14.7208 3.24637C23.6875 0.642464 36.3593 0.643639 51.4438 0.645037C51.7945 0.64507 52.1466 0.645102 52.5 0.645102C52.8534 0.645102 53.2055 0.64507 53.5562 0.645037C68.6407 0.643639 81.3125 0.642465 90.2792 3.24637C94.8602 4.57668 98.4097 6.57095 100.811 9.52494C103.195 12.457 104.494 16.3912 104.494 21.7458C104.494 27.1004 103.196 31.0015 100.814 33.8861C98.4141 36.7934 94.866 38.7273 90.2841 39.9965C84.3947 41.628 76.9086 42.1355 68.1903 42.2897C70.9859 41.9321 73.6855 41.4929 76.2082 40.9909C79.759 40.2843 82.9628 39.4524 85.593 38.5466C88.2171 37.6429 90.2908 36.6589 91.5669 35.6381C91.6852 35.5435 91.7209 35.3444 91.6468 35.1936C91.5726 35.0427 91.4166 34.9971 91.2983 35.0917C90.0884 36.0595 88.075 37.0238 85.4612 37.9239C82.8536 38.822 79.6686 39.6495 76.1303 40.3537C71.5499 41.2652 66.3829 41.9689 61.1176 42.352ZM61.1292 42.9972C87.4497 42.9347 105 41.6561 105 21.7458C105 -0.00527286 84.0543 -0.00309265 53.6106 7.60592e-05C53.2418 0.000114448 52.8716 0.000152982 52.5 0.000152982C52.1284 0.000152982 51.7582 0.000114449 51.3894 7.60597e-05C20.9457 -0.00309265 0 -0.00527286 0 21.7458C0 43.0387 20.0724 43.0224 49.478 42.9984C50.3922 42.9977 51.3153 42.9969 52.2472 42.9968C52.3314 42.9968 52.4157 42.9968 52.5 42.9968C53.5178 42.9968 54.5252 42.9976 55.522 42.9984C57.4314 43 59.3014 43.0015 61.1292 42.9972Z"/>
</mask>
<path fill-rule="evenodd" clip-rule="evenodd" d="M61.1176 42.352C59.2854 42.3564 57.4094 42.3549 55.4924 42.3534C54.5057 42.3526 53.5081 42.3518 52.5 42.3518C51.4919 42.3518 50.4943 42.3526 49.5076 42.3534C35.2714 42.3646 23.2983 42.374 14.7159 39.9965C10.134 38.7273 6.58589 36.7934 4.18578 33.8861C1.80447 31.0015 0.505618 27.1004 0.505618 21.7458C0.505618 16.3912 1.80464 12.457 4.18855 9.52494C6.59033 6.57095 10.1398 4.57668 14.7208 3.24637C23.6875 0.642464 36.3593 0.643639 51.4438 0.645037C51.7945 0.64507 52.1466 0.645102 52.5 0.645102C52.8534 0.645102 53.2055 0.64507 53.5562 0.645037C68.6407 0.643639 81.3125 0.642465 90.2792 3.24637C94.8602 4.57668 98.4097 6.57095 100.811 9.52494C103.195 12.457 104.494 16.3912 104.494 21.7458C104.494 27.1004 103.196 31.0015 100.814 33.8861C98.4141 36.7934 94.866 38.7273 90.2841 39.9965C84.3947 41.628 76.9086 42.1355 68.1903 42.2897C70.9859 41.9321 73.6855 41.4929 76.2082 40.9909C79.759 40.2843 82.9628 39.4524 85.593 38.5466C88.2171 37.6429 90.2908 36.6589 91.5669 35.6381C91.6852 35.5435 91.7209 35.3444 91.6468 35.1936C91.5726 35.0427 91.4166 34.9971 91.2983 35.0917C90.0884 36.0595 88.075 37.0238 85.4612 37.9239C82.8536 38.822 79.6686 39.6495 76.1303 40.3537C71.5499 41.2652 66.3829 41.9689 61.1176 42.352ZM61.1292 42.9972C87.4497 42.9347 105 41.6561 105 21.7458C105 -0.00527286 84.0543 -0.00309265 53.6106 7.60592e-05C53.2418 0.000114448 52.8716 0.000152982 52.5 0.000152982C52.1284 0.000152982 51.7582 0.000114449 51.3894 7.60597e-05C20.9457 -0.00309265 0 -0.00527286 0 21.7458C0 43.0387 20.0724 43.0224 49.478 42.9984C50.3922 42.9977 51.3153 42.9969 52.2472 42.9968C52.3314 42.9968 52.4157 42.9968 52.5 42.9968C53.5178 42.9968 54.5252 42.9976 55.522 42.9984C57.4314 43 59.3014 43.0015 61.1292 42.9972Z" fill="#21073A"/>
<path d="M61.1176 42.352L61.206 79.3519C62.0723 79.3498 62.9383 79.3173 63.8023 79.2545L61.1176 42.352ZM55.4924 42.3534L55.4633 79.3534H55.4633L55.4924 42.3534ZM49.5076 42.3534L49.5367 79.3534H49.5367L49.5076 42.3534ZM14.7159 39.9965L4.83822 75.6537L4.83822 75.6537L14.7159 39.9965ZM4.18578 33.8861L-24.3476 57.4413L-24.3476 57.4413L4.18578 33.8861ZM4.18855 9.52494L-24.5198 -13.8167L4.18855 9.52494ZM14.7208 3.24637L25.0393 38.7785L25.0393 38.7785L14.7208 3.24637ZM51.4438 0.645037L51.4403 37.645L51.4438 0.645037ZM53.5562 0.645037L53.5597 37.645H53.5597L53.5562 0.645037ZM90.2792 3.24637L100.598 -32.2857L100.598 -32.2857L90.2792 3.24637ZM100.811 9.52494L72.1031 32.8665L72.1031 32.8666L100.811 9.52494ZM100.814 33.8861L72.2809 10.3309L72.2808 10.3309L100.814 33.8861ZM90.2841 39.9965L80.4064 4.33941L80.4064 4.33941L90.2841 39.9965ZM68.1903 42.2897L63.4956 5.58879C44.0068 8.08174 29.865 25.3723 31.2873 44.9683C32.7097 64.5643 49.2002 79.6315 68.8447 79.284L68.1903 42.2897ZM76.2082 40.9909L68.9864 4.70253V4.70253L76.2082 40.9909ZM85.593 38.5466L97.6408 73.5302H97.6408L85.593 38.5466ZM91.5669 35.6381L68.4548 6.7446L68.4544 6.74492L91.5669 35.6381ZM91.6468 35.1936L124.851 18.8695L124.85 18.8674L91.6468 35.1936ZM91.2983 35.0917L68.1857 6.1986L68.1857 6.19863L91.2983 35.0917ZM85.4612 37.9239L73.4134 2.94034L73.4134 2.94034L85.4612 37.9239ZM76.1303 40.3537L83.3521 76.642H83.3521L76.1303 40.3537ZM61.1292 42.9972L61.2171 79.9971H61.2171L61.1292 42.9972ZM53.6106 7.60592e-05L53.6068 -36.9999L53.6106 7.60592e-05ZM51.3894 7.60597e-05L51.3932 -36.9999L51.3894 7.60597e-05ZM49.478 42.9984L49.4479 5.99843H49.4479L49.478 42.9984ZM52.2472 42.9968L52.2429 5.99679H52.2425L52.2472 42.9968ZM55.522 42.9984L55.4918 79.9984H55.4918L55.522 42.9984ZM61.0291 5.35212C59.266 5.35633 57.4498 5.35493 55.5216 5.35341L55.4633 79.3534C57.3691 79.3549 59.3048 79.3564 61.206 79.3519L61.0291 5.35212ZM55.5216 5.35341C54.5372 5.35264 53.5251 5.35184 52.5 5.35184V79.3518C53.4911 79.3518 54.4742 79.3526 55.4633 79.3534L55.5216 5.35341ZM52.5 5.35184C51.4749 5.35184 50.4628 5.35264 49.4784 5.35341L49.5367 79.3534C50.5258 79.3526 51.5089 79.3518 52.5 79.3518V5.35184ZM49.4784 5.35341C33.0791 5.36632 27.1543 5.04877 24.5936 4.33941L4.83822 75.6537C19.4424 79.6993 37.4637 79.3629 49.5367 79.3534L49.4784 5.35341ZM24.5936 4.33941C24.5936 4.33941 24.5944 4.33963 24.5959 4.34007C24.5975 4.34052 24.5999 4.34119 24.603 4.34209C24.6092 4.34391 24.6187 4.34669 24.6312 4.3505C24.6562 4.35809 24.6942 4.37 24.7445 4.38678C24.8444 4.42005 24.9986 4.47444 25.2 4.55488C25.5985 4.71407 26.2188 4.99005 26.9892 5.43023C28.5869 6.34319 30.7117 7.89916 32.7191 10.3309L-24.3476 57.4413C-15.4287 68.2451 -3.99846 73.2058 4.83822 75.6537L24.5936 4.33941ZM32.7191 10.3309C34.7522 12.7936 36.0604 15.4247 36.7897 17.7741C37.4768 19.9879 37.5056 21.4743 37.5056 21.7458H-36.4944C-36.4944 33.2445 -33.5829 46.2541 -24.3476 57.4413L32.7191 10.3309ZM37.5056 21.7458C37.5056 22.0229 37.4755 23.4727 36.8101 25.6304C36.1056 27.9148 34.8464 30.4688 32.8969 32.8666L-24.5198 -13.8167C-33.5778 -2.67604 -36.4944 10.2289 -36.4944 21.7458H37.5056ZM32.8969 32.8666C30.971 35.2353 28.9283 36.7689 27.3794 37.6788C26.6327 38.1175 26.0294 38.3953 25.6389 38.5571C25.4417 38.6387 25.2902 38.6943 25.1913 38.7287C25.0925 38.763 25.0399 38.7783 25.0393 38.7785L4.40239 -32.2857C-4.48252 -29.7056 -15.7569 -24.5943 -24.5198 -13.8167L32.8969 32.8666ZM25.0393 38.7785C25.0393 38.7785 25.0421 38.7776 25.0478 38.7761C25.0536 38.7745 25.0621 38.7721 25.0735 38.7691C25.0964 38.763 25.1303 38.7543 25.1756 38.7433C25.2669 38.7211 25.3995 38.6909 25.5771 38.6551C25.9378 38.5823 26.4437 38.4941 27.119 38.402C28.5019 38.2134 30.3285 38.0441 32.7331 37.9176C37.7396 37.654 43.6321 37.6443 51.4403 37.645L51.4472 -36.355C38.6587 -36.3561 19.6398 -36.7106 4.40239 -32.2857L25.0393 38.7785ZM51.4403 37.645C51.7908 37.6451 52.1446 37.6451 52.5 37.6451V-36.3549C52.1486 -36.3549 51.7982 -36.3549 51.4472 -36.355L51.4403 37.645ZM52.5 37.6451C52.8554 37.6451 53.2092 37.6451 53.5597 37.645L53.5528 -36.355C53.2018 -36.3549 52.8514 -36.3549 52.5 -36.3549V37.6451ZM53.5597 37.645C61.3679 37.6443 67.2604 37.654 72.2669 37.9176C74.6715 38.0441 76.4981 38.2134 77.881 38.402C78.5563 38.4941 79.0622 38.5823 79.4229 38.6551C79.6005 38.6909 79.7331 38.7211 79.8244 38.7433C79.8698 38.7543 79.9036 38.763 79.9265 38.7691C79.9379 38.7721 79.9464 38.7745 79.9522 38.7761C79.9579 38.7776 79.9607 38.7785 79.9607 38.7785L100.598 -32.2857C85.3602 -36.7106 66.3413 -36.3561 53.5528 -36.355L53.5597 37.645ZM79.9607 38.7785C79.9601 38.7783 79.9075 38.763 79.8086 38.7287C79.7097 38.6943 79.5583 38.6387 79.3611 38.5571C78.9706 38.3953 78.3673 38.1175 77.6206 37.6788C76.0717 36.7689 74.029 35.2352 72.1031 32.8665L129.52 -13.8167C120.757 -24.5943 109.483 -29.7056 100.598 -32.2857L79.9607 38.7785ZM72.1031 32.8666C70.1536 30.4688 68.8944 27.9148 68.1899 25.6304C67.5245 23.4727 67.4944 22.0229 67.4944 21.7458H141.494C141.494 10.2289 138.578 -2.67605 129.52 -13.8167L72.1031 32.8666ZM67.4944 21.7458C67.4944 21.4743 67.5232 19.9879 68.2104 17.774C68.9396 15.4247 70.2478 12.7936 72.2809 10.3309L129.348 57.4413C138.583 46.2541 141.494 33.2445 141.494 21.7458H67.4944ZM72.2808 10.3309C74.2883 7.89918 76.413 6.3432 78.0108 5.43024C78.7811 4.99006 79.4015 4.71407 79.8 4.55488C80.0014 4.47444 80.1556 4.42005 80.2555 4.38678C80.3058 4.37 80.3438 4.35809 80.3688 4.3505C80.3814 4.34668 80.3908 4.3439 80.397 4.34209C80.4002 4.34118 80.4025 4.34051 80.4041 4.34007C80.4056 4.33963 80.4064 4.33941 80.4064 4.33941L100.162 75.6537C108.998 73.2058 120.429 68.2451 129.348 57.4412L72.2808 10.3309ZM80.4064 4.33941C79.4335 4.60891 76.0801 5.14438 67.5358 5.29552L68.8447 79.284C77.7371 79.1266 89.3558 78.6471 100.162 75.6537L80.4064 4.33941ZM72.885 78.9907C76.4743 78.5315 80.019 77.9581 83.43 77.2793L68.9864 4.70253C67.3521 5.02779 65.4976 5.33269 63.4956 5.58879L72.885 78.9907ZM83.43 77.2793C88.1268 76.3446 93.0222 75.1207 97.6408 73.5302L73.5453 3.56298C72.9034 3.78404 71.3912 4.22395 68.9864 4.70253L83.43 77.2793ZM97.6408 73.5302C101.404 72.2342 108.346 69.5974 114.679 64.5312L68.4544 6.74492C69.6522 5.78681 70.6768 5.12121 71.3715 4.70273C72.0818 4.27481 72.6384 3.99061 72.9747 3.82794C73.6098 3.52072 73.8551 3.45628 73.5452 3.56299L97.6408 73.5302ZM114.679 64.5316C130.362 51.9868 131.384 32.1583 124.851 18.8695L58.4424 51.5176C54.6882 43.8811 54.0095 35.8659 55.2621 28.8943C56.4879 22.0709 60.1396 13.396 68.4548 6.7446L114.679 64.5316ZM124.85 18.8674C120.96 10.9558 113.373 2.89926 101.871 -0.463128C89.8162 -3.98699 77.3205 -1.10859 68.1857 6.1986L114.411 63.9848C105.394 71.1973 93.0358 74.0512 81.1074 70.5642C69.7314 67.2387 62.2595 59.2804 58.4435 51.5197L124.85 18.8674ZM68.1857 6.19863C69.4123 5.2174 70.4606 4.53786 71.1649 4.11403C71.8871 3.67938 72.4539 3.39004 72.7977 3.22379C73.4494 2.90863 73.7089 2.8386 73.4134 2.94034L97.509 72.9075C101.257 71.6166 108.142 68.9995 114.411 63.9847L68.1857 6.19863ZM73.4134 2.94034C72.7942 3.1536 71.3009 3.58917 68.9085 4.06529L83.3521 76.642C88.0364 75.7098 92.9129 74.4903 97.509 72.9075L73.4134 2.94034ZM68.9085 4.06529C65.8946 4.66508 62.2456 5.17215 58.4328 5.44954L63.8023 79.2545C70.5201 78.7657 77.2052 77.8653 83.3521 76.642L68.9085 4.06529ZM68 21.7458C68 21.2687 68.1562 17.0371 71.5939 12.1551C75.029 7.27669 79.1213 5.4707 80.193 5.07759C80.8658 4.8308 79.9762 5.25216 76.055 5.57467C72.3056 5.88305 67.5597 5.98178 61.0413 5.99726L61.2171 79.9971C72.6695 79.9699 90.6883 80.0491 105.677 74.5512C114.426 71.3419 124.551 65.4792 132.099 54.7593C139.65 44.0358 142 32.1781 142 21.7458H68ZM53.6145 37.0001C61.4992 36.9993 67.4369 37.0095 72.4768 37.2833C74.8955 37.4147 76.7206 37.5898 78.0909 37.7827C78.7593 37.8768 79.253 37.966 79.5975 38.0379C79.943 38.11 80.0888 38.1544 80.0705 38.1489C80.0522 38.1434 79.8182 38.0725 79.4187 37.9022C79.0168 37.7308 78.4122 37.4437 77.6724 36.998C76.1341 36.0712 74.1623 34.5456 72.325 32.2421C68.2578 27.1424 68 22.3779 68 21.7458H142C142 10.2382 139.124 -2.68269 130.178 -13.8993C121.497 -24.784 110.285 -30.0397 101.373 -32.7187C85.8661 -37.3799 66.4486 -37.0013 53.6068 -36.9999L53.6145 37.0001ZM52.5 37.0002C52.8738 37.0002 53.246 37.0001 53.6145 37.0001L53.6068 -36.9999C53.2376 -36.9999 52.8694 -36.9998 52.5 -36.9998V37.0002ZM51.3855 37.0001C51.754 37.0001 52.1262 37.0002 52.5 37.0002V-36.9998C52.1307 -36.9998 51.7624 -36.9999 51.3932 -36.9999L51.3855 37.0001ZM37 21.7458C37 22.3779 36.7422 27.1424 32.675 32.2421C30.8377 34.5456 28.8659 36.0712 27.3276 36.998C26.5878 37.4437 25.9832 37.7308 25.5813 37.9022C25.1818 38.0725 24.9478 38.1434 24.9295 38.1489C24.9112 38.1544 25.057 38.11 25.4025 38.0379C25.747 37.966 26.2407 37.8768 26.9091 37.7827C28.2793 37.5898 30.1045 37.4147 32.5232 37.2833C37.5631 37.0095 43.5008 36.9993 51.3855 37.0001L51.3932 -36.9999C38.5514 -37.0013 19.1339 -37.3799 3.62707 -32.7187C-5.28497 -30.0397 -16.4968 -24.784 -25.1781 -13.8993C-34.124 -2.68269 -37 10.2382 -37 21.7458H37ZM49.4479 5.99843C41.8172 6.00465 36.1468 5.998 31.3544 5.73691C29.0615 5.61199 27.3644 5.44615 26.1197 5.26879C24.8566 5.08882 24.405 4.94461 24.5169 4.97876C24.6748 5.02697 28.8953 6.34383 32.7364 11.2533C36.7756 16.4157 37 21.1708 37 21.7458H-37C-37 32.9673 -34.2665 45.7052 -25.5449 56.8525C-17.0212 67.7467 -5.94473 73.0504 2.90696 75.7531C18.1716 80.414 37.2336 80.0084 49.5082 79.9984L49.4479 5.99843ZM52.2425 5.99679C51.2956 5.9969 50.3593 5.99769 49.4479 5.99843L49.5082 79.9984C50.425 79.9977 51.3351 79.9969 52.2519 79.9968L52.2425 5.99679ZM52.5 5.99678C52.4218 5.99678 52.3296 5.99677 52.2429 5.99679L52.2515 79.9968C52.3332 79.9968 52.4095 79.9968 52.5 79.9968V5.99678ZM55.5522 5.99843C54.5576 5.99762 53.5353 5.99678 52.5 5.99678V79.9968C53.5003 79.9968 54.4928 79.9976 55.4918 79.9984L55.5522 5.99843ZM61.0413 5.99726C59.2829 6.00144 57.4727 5.99999 55.5521 5.99843L55.4918 79.9984C57.39 79.9999 59.32 80.0016 61.2171 79.9971L61.0413 5.99726Z" fill="#F8DC30" mask="url(#path-1-inside-1_1016_637)"/>
</svg>
