<svg width="284" height="88" viewBox="0 0 284 88" fill="none" xmlns="http://www.w3.org/2000/svg">
<mask id="path-1-inside-1_1_230" fill="white">
<path fill-rule="evenodd" clip-rule="evenodd" d="M165.308 86.6739C160.353 86.6828 155.279 86.6798 150.094 86.6767C147.425 86.6751 144.727 86.6735 142 86.6735C139.273 86.6735 136.575 86.6751 133.906 86.6767C95.4007 86.6997 63.0165 86.719 39.803 81.8534C27.4101 79.2558 17.8133 75.2981 11.3215 69.3482C4.88067 63.4449 1.36758 55.4613 1.36758 44.5031C1.36758 33.5448 4.88112 25.4933 11.329 19.4929C17.8253 13.4475 27.4258 9.36624 39.8164 6.64373C64.0691 1.31481 98.3431 1.31721 139.143 1.32008C140.092 1.32014 141.044 1.32021 142 1.32021C142.956 1.32021 143.908 1.32014 144.857 1.32008C185.657 1.31721 219.931 1.31481 244.184 6.64373C256.574 9.36624 266.175 13.4475 272.671 19.4929C279.119 25.4933 282.632 33.5448 282.632 44.5031C282.632 55.4613 279.119 63.4449 272.678 69.3482C266.187 75.2981 256.59 79.2558 244.197 81.8534C228.267 85.1922 208.019 86.2308 184.438 86.5464C192 85.8146 199.302 84.9158 206.125 83.8884C215.729 82.4422 224.395 80.7397 231.509 78.886C238.606 77.0366 244.215 75.0228 247.667 72.9337C247.987 72.7401 248.083 72.3328 247.883 72.024C247.682 71.7152 247.26 71.6219 246.94 71.8155C243.668 73.7962 238.222 75.7696 231.152 77.6117C224.099 79.4496 215.485 81.1431 205.914 82.5842C193.525 84.4497 179.55 85.8899 165.308 86.6739ZM165.34 87.9942C236.531 87.8663 284 85.2497 284 44.5031C284 -0.0107917 227.347 -0.00632915 145.004 0.000155656C144.006 0.00023422 143.005 0.00031308 142 0.00031308C140.995 0.00031308 139.994 0.00023422 138.996 0.000155657C56.6531 -0.00632915 0 -0.0107917 0 44.5031C0 88.0793 54.2912 88.0458 133.826 87.9968C136.299 87.9952 138.796 87.9937 141.316 87.9934C141.544 87.9934 141.772 87.9934 142 87.9934C144.753 87.9934 147.478 87.9951 150.174 87.9968C155.338 87.9999 160.396 88.0031 165.34 87.9942Z"/>
</mask>
<path fill-rule="evenodd" clip-rule="evenodd" d="M165.308 86.6739C160.353 86.6828 155.279 86.6798 150.094 86.6767C147.425 86.6751 144.727 86.6735 142 86.6735C139.273 86.6735 136.575 86.6751 133.906 86.6767C95.4007 86.6997 63.0165 86.719 39.803 81.8534C27.4101 79.2558 17.8133 75.2981 11.3215 69.3482C4.88067 63.4449 1.36758 55.4613 1.36758 44.5031C1.36758 33.5448 4.88112 25.4933 11.329 19.4929C17.8253 13.4475 27.4258 9.36624 39.8164 6.64373C64.0691 1.31481 98.3431 1.31721 139.143 1.32008C140.092 1.32014 141.044 1.32021 142 1.32021C142.956 1.32021 143.908 1.32014 144.857 1.32008C185.657 1.31721 219.931 1.31481 244.184 6.64373C256.574 9.36624 266.175 13.4475 272.671 19.4929C279.119 25.4933 282.632 33.5448 282.632 44.5031C282.632 55.4613 279.119 63.4449 272.678 69.3482C266.187 75.2981 256.59 79.2558 244.197 81.8534C228.267 85.1922 208.019 86.2308 184.438 86.5464C192 85.8146 199.302 84.9158 206.125 83.8884C215.729 82.4422 224.395 80.7397 231.509 78.886C238.606 77.0366 244.215 75.0228 247.667 72.9337C247.987 72.7401 248.083 72.3328 247.883 72.024C247.682 71.7152 247.26 71.6219 246.94 71.8155C243.668 73.7962 238.222 75.7696 231.152 77.6117C224.099 79.4496 215.485 81.1431 205.914 82.5842C193.525 84.4497 179.55 85.8899 165.308 86.6739ZM165.34 87.9942C236.531 87.8663 284 85.2497 284 44.5031C284 -0.0107917 227.347 -0.00632915 145.004 0.000155656C144.006 0.00023422 143.005 0.00031308 142 0.00031308C140.995 0.00031308 139.994 0.00023422 138.996 0.000155657C56.6531 -0.00632915 0 -0.0107917 0 44.5031C0 88.0793 54.2912 88.0458 133.826 87.9968C136.299 87.9952 138.796 87.9937 141.316 87.9934C141.544 87.9934 141.772 87.9934 142 87.9934C144.753 87.9934 147.478 87.9951 150.174 87.9968C155.338 87.9999 160.396 88.0031 165.34 87.9942Z" fill="#21073A"/>
<path d="M165.308 86.6739L165.525 206.674C167.653 206.67 169.78 206.609 171.904 206.492L165.308 86.6739ZM150.094 86.6767L150.022 206.677H150.022L150.094 86.6767ZM133.906 86.6767L133.978 206.677H133.978L133.906 86.6767ZM39.803 81.8534L15.1858 199.301H15.1858L39.803 81.8534ZM11.3215 69.3482L-69.7593 157.812L-69.7593 157.812L11.3215 69.3482ZM11.329 19.4929L-70.4206 -68.3536L11.329 19.4929ZM39.8164 6.64373L65.569 123.848H65.569L39.8164 6.64373ZM139.143 1.32008L139.135 121.32L139.143 1.32008ZM144.857 1.32008L144.865 121.32H144.865L144.857 1.32008ZM244.184 6.64373L269.936 -110.56L269.936 -110.56L244.184 6.64373ZM272.671 19.4929L190.921 107.339L190.921 107.339L272.671 19.4929ZM272.678 69.3482L191.598 -19.1159L191.598 -19.1158L272.678 69.3482ZM244.197 81.8534L219.58 -35.5944L219.58 -35.5944L244.197 81.8534ZM184.438 86.5464L172.878 -32.8954C108.842 -26.6976 61.087 28.8971 64.6194 93.1353C68.1519 157.373 121.715 207.397 186.044 206.536L184.438 86.5464ZM206.125 83.8884L188.257 -34.7739H188.257L206.125 83.8884ZM231.509 78.886L261.767 195.009L261.767 195.009L231.509 78.886ZM247.667 72.9337L185.532 -29.7276L185.531 -29.7268L247.667 72.9337ZM247.883 72.024L348.507 6.64302L348.503 6.63565L247.883 72.024ZM246.94 71.8155L184.804 -30.8448L184.804 -30.8447L246.94 71.8155ZM231.152 77.6117L200.894 -38.5108L200.894 -38.5108L231.152 77.6117ZM205.914 82.5842L223.782 201.247H223.782L205.914 82.5842ZM165.34 87.9942L165.556 207.994H165.556L165.34 87.9942ZM145.004 0.000155656L144.995 -120L145.004 0.000155656ZM138.996 0.000155657L139.005 -120L138.996 0.000155657ZM133.826 87.9968L133.752 -32.0032H133.752L133.826 87.9968ZM141.316 87.9934L141.306 -32.0066H141.305L141.316 87.9934ZM150.174 87.9968L150.1 207.997H150.1L150.174 87.9968ZM165.091 -33.3259C160.305 -33.3173 155.378 -33.3201 150.165 -33.3233L150.022 206.677C155.18 206.68 160.4 206.683 165.525 206.674L165.091 -33.3259ZM150.165 -33.3233C147.502 -33.3248 144.768 -33.3265 142 -33.3265V206.674C144.685 206.674 147.348 206.675 150.022 206.677L150.165 -33.3233ZM142 -33.3265C139.232 -33.3265 136.498 -33.3248 133.835 -33.3233L133.978 206.677C136.652 206.675 139.315 206.674 142 206.674V-33.3265ZM133.835 -33.3233C89.8972 -33.2971 72.483 -33.9045 64.4202 -35.5944L15.1858 199.301C53.55 207.342 100.904 206.696 133.978 206.677L133.835 -33.3233ZM64.4202 -35.5944C63.79 -35.7265 66.4239 -35.2541 70.9703 -33.2885C75.6089 -31.2831 83.704 -27.0883 92.4024 -19.1159L-69.7593 157.812C-40.2776 184.834 -6.25557 194.807 15.1858 199.301L64.4202 -35.5944ZM92.4024 -19.1159C101.522 -10.7578 109.593 0.217575 114.951 13.2778C120.148 25.9461 121.368 37.0814 121.368 44.5031H-118.632C-118.632 84.5756 -104.15 126.292 -69.7593 157.812L92.4024 -19.1159ZM121.368 44.5031C121.368 51.942 120.143 62.9472 115.055 75.4301C109.821 88.2731 101.954 99.0796 93.0787 107.339L-70.4206 -68.3536C-104.202 -36.9171 -118.632 4.46054 -118.632 44.5031H121.368ZM93.0787 107.339C84.5997 115.23 76.6889 119.439 72.105 121.477C67.6136 123.473 64.9944 123.974 65.569 123.848L14.0637 -110.56C-7.58692 -105.803 -41.3082 -95.4454 -70.4206 -68.3536L93.0787 107.339ZM65.569 123.848C74.0076 121.994 92.5585 121.317 139.135 121.32L139.152 -118.68C104.128 -118.682 54.1306 -119.364 14.0637 -110.56L65.569 123.848ZM139.135 121.32C140.083 121.32 141.039 121.32 142 121.32V-118.68C141.049 -118.68 140.101 -118.68 139.152 -118.68L139.135 121.32ZM142 121.32C142.961 121.32 143.917 121.32 144.865 121.32L144.848 -118.68C143.899 -118.68 142.951 -118.68 142 -118.68V121.32ZM144.865 121.32C191.441 121.317 209.992 121.994 218.431 123.848L269.936 -110.56C229.869 -119.364 179.872 -118.682 144.848 -118.68L144.865 121.32ZM218.431 123.848C219.006 123.974 216.386 123.473 211.895 121.477C207.311 119.439 199.4 115.23 190.921 107.339L354.421 -68.3535C325.308 -95.4454 291.587 -105.803 269.936 -110.56L218.431 123.848ZM190.921 107.339C182.046 99.0797 174.179 88.2731 168.945 75.4301C163.857 62.9472 162.632 51.942 162.632 44.5031H402.632C402.632 4.46052 388.202 -36.9172 354.421 -68.3536L190.921 107.339ZM162.632 44.5031C162.632 37.0814 163.852 25.9461 169.049 13.2777C174.407 0.217523 182.478 -10.7578 191.598 -19.1159L353.759 157.812C388.15 126.292 402.632 84.5757 402.632 44.5031H162.632ZM191.598 -19.1158C200.296 -27.0883 208.391 -31.283 213.03 -33.2885C217.576 -35.2541 220.21 -35.7265 219.58 -35.5944L268.814 199.301C290.256 194.807 324.278 184.833 353.759 157.812L191.598 -19.1158ZM219.58 -35.5944C216.072 -34.8591 206.09 -33.7541 182.832 -33.4428L186.044 206.536C209.949 206.216 240.463 205.244 268.814 199.301L219.58 -35.5944ZM195.999 205.988C205.527 205.066 214.937 203.914 223.993 202.551L188.257 -34.7739C183.666 -34.0826 178.473 -33.437 172.878 -32.8954L195.999 205.988ZM223.993 202.551C236.451 200.675 249.457 198.216 261.767 195.009L201.251 -37.2365C199.333 -36.7368 195.008 -35.7904 188.257 -34.7739L223.993 202.551ZM261.767 195.009C271.184 192.555 290.818 187.085 309.802 175.594L185.531 -29.7268C189.519 -32.1402 192.815 -33.7503 194.913 -34.7069C197.086 -35.6971 198.75 -36.3383 199.713 -36.6906C201.531 -37.356 202.193 -37.482 201.25 -37.2365L261.767 195.009ZM309.801 175.595C366.53 141.261 386.63 65.3156 348.507 6.64302L147.258 137.405C109.537 79.35 129.443 4.21948 185.532 -29.7276L309.801 175.595ZM348.503 6.63565C312.102 -49.3769 239.118 -63.7185 184.804 -30.8448L309.076 174.476C255.402 206.962 183.262 192.807 147.263 137.412L348.503 6.63565ZM184.804 -30.8447C188.875 -33.3085 192.237 -34.9474 194.358 -35.9132C196.561 -36.9163 198.252 -37.5676 199.235 -37.9271C201.097 -38.6086 201.797 -38.7461 200.894 -38.5108L261.411 193.734C270.787 191.291 290.265 185.861 309.076 174.476L184.804 -30.8447ZM200.894 -38.5108C199.037 -38.0269 194.763 -37.0895 188.046 -36.078L223.782 201.247C236.206 199.376 249.161 196.926 261.411 193.734L200.894 -38.5108ZM188.046 -36.078C179.591 -34.8048 169.384 -33.7321 158.713 -33.1447L171.904 206.492C189.716 205.512 207.46 203.704 223.782 201.247L188.046 -36.078ZM164 44.5031C164 37.9114 164.975 28.3056 168.981 17.2344C173.105 5.83818 179.542 -4.59429 187.625 -13.2804C202.978 -29.7777 218.381 -33.9004 219.275 -34.1486C220.627 -34.5238 217.559 -33.5842 206.461 -32.8936C195.929 -32.2382 182.773 -32.0373 165.124 -32.0056L165.556 207.994C196.694 207.938 243.948 208.075 283.458 197.11C305.119 191.098 336.838 178.673 363.316 150.222C392.658 118.692 404 80.1231 404 44.5031H164ZM145.013 120C166.272 119.998 182.602 120.017 196.533 120.59C210.937 121.182 217.185 122.208 218.767 122.568C221.464 123.182 207.07 120.814 191.272 105.826C182.586 97.5864 175.036 86.955 170.041 74.511C165.184 62.4089 164 51.7534 164 44.5031H404C404 4.77687 389.899 -36.5564 356.451 -68.2879C327.457 -95.7938 293.753 -106.506 271.994 -111.455C231.204 -120.732 180.169 -120.003 144.995 -120L145.013 120ZM142 120C143.011 120 144.017 120 145.013 120L144.995 -120C143.996 -120 143 -120 142 -120V120ZM138.987 120C139.983 120 140.989 120 142 120V-120C141 -120 140.004 -120 139.005 -120L138.987 120ZM120 44.5031C120 51.7534 118.816 62.4089 113.959 74.511C108.964 86.955 101.414 97.5864 92.7283 105.826C76.9302 120.814 62.5355 123.182 65.2326 122.568C66.8146 122.208 73.0634 121.182 87.4672 120.59C101.398 120.017 117.728 119.998 138.987 120L139.005 -120C103.831 -120.003 52.7961 -120.732 12.0062 -111.455C-9.75286 -106.506 -43.4572 -95.7938 -72.451 -68.2879C-105.899 -36.5564 -120 4.77687 -120 44.5031H120ZM133.752 -32.0032C113.182 -31.9905 97.5708 -32.0019 84.3044 -32.5487C77.9215 -32.8118 73.0666 -33.1662 69.3933 -33.5622C65.6498 -33.9658 64.0889 -34.3133 64.0992 -34.311C64.1735 -34.2938 64.9028 -34.1238 66.1519 -33.714C67.3978 -33.3052 69.3762 -32.5874 71.8834 -31.424C76.8349 -29.1263 84.8011 -24.6421 93.1463 -16.5717C101.889 -8.11659 109.305 2.61716 114.161 14.9627C118.874 26.9451 120 37.4294 120 44.5031H-120C-120 83.2005 -106.594 124.135 -73.6948 155.951C-44.9954 183.705 -11.5016 194.545 10.0758 199.53C50.2054 208.801 100.255 208.017 133.9 207.997L133.752 -32.0032ZM141.305 -32.0066C138.747 -32.0063 136.218 -32.0047 133.752 -32.0032L133.9 207.997C136.38 207.995 138.844 207.994 141.328 207.993L141.305 -32.0066ZM142 -32.0066C141.787 -32.0066 141.54 -32.0066 141.306 -32.0066L141.327 207.993C141.548 207.993 141.757 207.993 142 207.993V-32.0066ZM150.248 -32.0032C147.557 -32.0049 144.796 -32.0066 142 -32.0066V207.993C144.71 207.993 147.398 207.995 150.1 207.997L150.248 -32.0032ZM165.124 -32.0056C160.351 -31.997 155.44 -32 150.248 -32.0032L150.1 207.997C155.237 208 160.442 208.003 165.556 207.994L165.124 -32.0056Z" fill="#AB04FF" mask="url(#path-1-inside-1_1_230)"/>
</svg>
