<svg width="410" height="161" viewBox="0 0 410 161" fill="none" xmlns="http://www.w3.org/2000/svg">
<mask id="path-1-inside-1_1_514" fill="white">
<path fill-rule="evenodd" clip-rule="evenodd" d="M238.65 158.574C231.495 158.59 224.17 158.585 216.685 158.579C212.832 158.576 208.936 158.573 205 158.573C201.064 158.573 197.168 158.576 193.315 158.579C137.726 158.621 90.9745 158.656 57.4621 149.755C39.5709 145.002 25.7163 137.761 16.3445 126.876C7.04603 116.075 1.97432 101.469 1.97432 81.4205C1.97432 61.3717 7.04668 46.6412 16.3553 35.6631C25.7337 24.6029 39.5936 17.136 57.4814 12.155C92.4941 2.40551 141.974 2.4099 200.876 2.41514C202.245 2.41526 203.62 2.41538 205 2.41538C206.38 2.41538 207.755 2.41526 209.124 2.41514C268.026 2.4099 317.506 2.40551 352.519 12.155C370.406 17.136 384.266 24.6029 393.645 35.6631C402.953 46.6412 408.026 61.3717 408.026 81.4205C408.026 101.469 402.954 116.075 393.656 126.876C384.284 137.761 370.429 145.002 352.538 149.755C329.541 155.863 300.31 157.763 266.267 158.341C277.183 157.002 287.724 155.357 297.575 153.478C311.44 150.832 323.95 147.717 334.22 144.326C344.467 140.942 352.564 137.258 357.547 133.436C358.009 133.081 358.148 132.336 357.859 131.771C357.569 131.206 356.96 131.036 356.498 131.39C351.774 135.013 343.912 138.624 333.706 141.994C323.523 145.357 311.087 148.455 297.271 151.092C279.385 154.505 259.209 157.14 238.65 158.574ZM238.695 160.989C341.47 160.755 410 155.968 410 81.4205C410 -0.0197439 328.212 -0.0115795 209.337 0.00028478C207.897 0.000428516 206.451 0.000572794 205 0.000572794C203.549 0.000572794 202.103 0.000428517 200.663 0.000284782C81.7879 -0.0115795 0 -0.0197439 0 81.4205C0 161.145 78.3781 161.084 193.2 160.994C196.769 160.991 200.374 160.988 204.013 160.988C204.342 160.988 204.671 160.988 205 160.988C208.974 160.988 212.908 160.991 216.8 160.994C224.256 161 231.558 161.006 238.695 160.989Z"/>
</mask>
<path fill-rule="evenodd" clip-rule="evenodd" d="M238.65 158.574C231.495 158.59 224.17 158.585 216.685 158.579C212.832 158.576 208.936 158.573 205 158.573C201.064 158.573 197.168 158.576 193.315 158.579C137.726 158.621 90.9745 158.656 57.4621 149.755C39.5709 145.002 25.7163 137.761 16.3445 126.876C7.04603 116.075 1.97432 101.469 1.97432 81.4205C1.97432 61.3717 7.04668 46.6412 16.3553 35.6631C25.7337 24.6029 39.5936 17.136 57.4814 12.155C92.4941 2.40551 141.974 2.4099 200.876 2.41514C202.245 2.41526 203.62 2.41538 205 2.41538C206.38 2.41538 207.755 2.41526 209.124 2.41514C268.026 2.4099 317.506 2.40551 352.519 12.155C370.406 17.136 384.266 24.6029 393.645 35.6631C402.953 46.6412 408.026 61.3717 408.026 81.4205C408.026 101.469 402.954 116.075 393.656 126.876C384.284 137.761 370.429 145.002 352.538 149.755C329.541 155.863 300.31 157.763 266.267 158.341C277.183 157.002 287.724 155.357 297.575 153.478C311.44 150.832 323.95 147.717 334.22 144.326C344.467 140.942 352.564 137.258 357.547 133.436C358.009 133.081 358.148 132.336 357.859 131.771C357.569 131.206 356.96 131.036 356.498 131.39C351.774 135.013 343.912 138.624 333.706 141.994C323.523 145.357 311.087 148.455 297.271 151.092C279.385 154.505 259.209 157.14 238.65 158.574ZM238.695 160.989C341.47 160.755 410 155.968 410 81.4205C410 -0.0197439 328.212 -0.0115795 209.337 0.00028478C207.897 0.000428516 206.451 0.000572794 205 0.000572794C203.549 0.000572794 202.103 0.000428517 200.663 0.000284782C81.7879 -0.0115795 0 -0.0197439 0 81.4205C0 161.145 78.3781 161.084 193.2 160.994C196.769 160.991 200.374 160.988 204.013 160.988C204.342 160.988 204.671 160.988 205 160.988C208.974 160.988 212.908 160.991 216.8 160.994C224.256 161 231.558 161.006 238.695 160.989Z" fill="#21073A"/>
<path d="M238.65 158.574L238.925 278.573C241.619 278.567 244.313 278.47 247.001 278.283L238.65 158.574ZM216.685 158.579L216.594 278.579H216.594L216.685 158.579ZM193.315 158.579L193.406 278.579H193.406L193.315 158.579ZM57.4621 149.755L26.6552 265.733H26.6552L57.4621 149.755ZM16.3445 126.876L-74.5957 205.169L-74.5956 205.169L16.3445 126.876ZM16.3553 35.6631L-75.1708 -41.9447L16.3553 35.6631ZM57.4814 12.155L89.6714 127.757L89.6714 127.757L57.4814 12.155ZM200.876 2.41514L200.865 122.415L200.876 2.41514ZM209.124 2.41514L209.135 122.415L209.124 2.41514ZM352.519 12.155L384.709 -103.447L384.709 -103.447L352.519 12.155ZM393.645 35.6631L302.118 113.271L302.119 113.271L393.645 35.6631ZM393.656 126.876L302.715 48.5821L302.715 48.5821L393.656 126.876ZM352.538 149.755L321.731 33.7763L321.731 33.7764L352.538 149.755ZM266.267 158.341L251.657 39.2333C188.307 47.0036 142.124 103.004 146.556 166.674C150.989 230.345 204.486 279.406 268.302 278.323L266.267 158.341ZM297.575 153.478L275.082 35.6045L275.082 35.6045L297.575 153.478ZM334.22 144.326L371.848 258.273L371.848 258.273L334.22 144.326ZM357.547 133.436L284.514 38.2187L284.513 38.2197L357.547 133.436ZM357.859 131.771L464.642 77.0228L464.638 77.0159L357.859 131.771ZM356.498 131.39L283.464 36.1741L283.464 36.1742L356.498 131.39ZM333.706 141.994L296.078 28.0463L296.078 28.0463L333.706 141.994ZM297.271 151.092L319.764 268.965H319.764L297.271 151.092ZM238.695 160.989L238.968 280.989H238.968L238.695 160.989ZM209.337 0.00028478L209.325 -120L209.337 0.00028478ZM200.663 0.000284782L200.675 -120L200.663 0.000284782ZM193.2 160.994L193.106 40.9941H193.106L193.2 160.994ZM204.013 160.988L203.999 40.988H203.998L204.013 160.988ZM216.8 160.994L216.706 280.994H216.706L216.8 160.994ZM238.374 38.5741C231.435 38.59 224.296 38.5847 216.775 38.579L216.594 278.579C224.045 278.585 231.556 278.59 238.925 278.573L238.374 38.5741ZM216.775 38.579C212.93 38.5761 208.989 38.5732 205 38.5732V278.573C208.884 278.573 212.734 278.576 216.594 278.579L216.775 38.579ZM205 38.5732C201.011 38.5732 197.07 38.5761 193.225 38.579L193.406 278.579C197.266 278.576 201.116 278.573 205 278.573V38.5732ZM193.225 38.579C130.879 38.6261 102.967 37.6806 88.269 33.7763L26.6552 265.733C78.9818 279.632 144.573 278.616 193.406 278.579L193.225 38.579ZM88.269 33.7764C83.3895 32.4802 95.0778 34.4036 107.285 48.5821L-74.5956 205.169C-43.6451 241.119 -4.24766 257.524 26.6552 265.733L88.269 33.7764ZM107.285 48.5821C113.447 55.7395 117.545 63.5699 119.84 70.6602C120.913 73.9743 121.448 76.6787 121.713 78.5377C121.974 80.3744 121.974 81.3967 121.974 81.4205H-118.026C-118.026 122.567 -107.088 167.429 -74.5957 205.169L107.285 48.5821ZM121.974 81.4205C121.974 81.447 121.974 82.443 121.72 84.232C121.463 86.0424 120.945 88.6664 119.912 91.8799C117.703 98.7475 113.772 106.324 107.881 113.271L-75.1708 -41.9447C-107.078 -4.31537 -118.026 40.2251 -118.026 81.4205H121.974ZM107.881 113.271C96.176 127.076 84.9709 129.066 89.6714 127.757L25.2913 -103.447C-5.78363 -94.7939 -44.7087 -77.8698 -75.1708 -41.9447L107.881 113.271ZM89.6714 127.757C105.084 123.465 134.79 122.409 200.865 122.415L200.886 -117.585C149.159 -117.589 79.9046 -118.654 25.2913 -103.447L89.6714 127.757ZM200.865 122.415C202.234 122.415 203.614 122.415 205 122.415V-117.585C203.626 -117.585 202.257 -117.585 200.886 -117.585L200.865 122.415ZM205 122.415C206.386 122.415 207.766 122.415 209.135 122.415L209.114 -117.585C207.743 -117.585 206.374 -117.585 205 -117.585V122.415ZM209.135 122.415C275.21 122.409 304.916 123.465 320.329 127.757L384.709 -103.447C330.095 -118.654 260.841 -117.589 209.114 -117.585L209.135 122.415ZM320.329 127.757C325.029 129.066 313.824 127.076 302.118 113.271L485.171 -41.9446C454.709 -77.8698 415.784 -94.7939 384.709 -103.447L320.329 127.757ZM302.119 113.271C296.228 106.324 292.297 98.7476 290.088 91.8799C289.055 88.6664 288.537 86.0424 288.28 84.232C288.026 82.443 288.026 81.447 288.026 81.4205H528.026C528.026 40.2251 517.078 -4.31542 485.171 -41.9448L302.119 113.271ZM288.026 81.4205C288.026 81.3967 288.026 80.3744 288.287 78.5376C288.552 76.6787 289.087 73.9743 290.16 70.6602C292.455 63.5698 296.553 55.7395 302.715 48.5821L484.596 205.169C517.088 167.429 528.026 122.567 528.026 81.4205H288.026ZM302.715 48.5821C314.922 34.4036 326.611 32.4802 321.731 33.7763L383.345 265.733C414.248 257.524 453.645 241.119 484.596 205.169L302.715 48.5821ZM321.731 33.7764C314.107 35.8014 297.758 37.7892 264.232 38.3579L268.302 278.323C302.862 277.737 344.975 275.925 383.345 265.733L321.731 33.7764ZM280.876 277.448C294.265 275.806 307.443 273.76 320.068 271.351L275.082 35.6045C268.006 36.9548 260.101 38.1976 251.657 39.2333L280.876 277.448ZM320.068 271.351C337.507 268.023 355.322 263.731 371.848 258.273L296.592 30.3776C292.578 31.7032 285.373 33.6407 275.082 35.6045L320.068 271.351ZM371.848 258.273C385.55 253.749 409.232 245.027 430.581 228.652L284.513 38.2197C288.209 35.3848 291.281 33.4831 293.218 32.364C295.21 31.2132 296.664 30.5102 297.368 30.1836C298.656 29.586 298.565 29.7263 296.592 30.3776L371.848 258.273ZM430.579 228.653C482.878 188.539 487.867 122.323 464.642 77.0228L251.076 186.52C238.092 161.196 235.611 134.205 240.037 110.582C244.404 87.279 257.203 59.1667 284.514 38.2187L430.579 228.653ZM464.638 77.0159C451.1 50.6157 425.778 25.821 389.63 15.689C352.259 5.21385 313.057 13.4754 283.464 36.1741L429.532 226.606C400.401 248.95 361.735 257.12 324.856 246.783C289.201 236.789 264.327 212.362 251.079 186.527L464.638 77.0159ZM283.464 36.1742C287.264 33.2591 290.423 31.307 292.401 30.1655C294.442 28.9879 295.938 28.264 296.675 27.9223C298.034 27.2922 298 27.4113 296.078 28.0463L371.334 255.942C384.982 251.435 408.436 242.787 429.532 226.605L283.464 36.1742ZM296.078 28.0463C292.152 29.3428 285.02 31.264 274.777 33.2186L319.764 268.965C337.154 265.646 354.895 261.37 371.334 255.942L296.078 28.0463ZM274.777 33.2186C261.785 35.6979 246.34 37.7457 230.298 38.8647L247.001 278.283C272.079 276.533 296.986 273.311 319.764 268.965L274.777 33.2186ZM290 81.4205C290 81.6434 289.966 78.5407 291.466 73.2865C293.051 67.7356 296.018 60.9784 300.964 54.2431C311.333 40.1236 322.846 35.9501 323.072 35.8706C323.134 35.8488 321.397 36.4494 317.104 37.2108C312.859 37.9638 307.091 38.705 299.385 39.3127C283.477 40.5673 263.924 40.9316 238.422 40.9897L238.968 280.989C284.983 280.884 349.804 280.881 402.704 262.275C432.91 251.65 467.979 232.288 494.408 196.297C521.179 159.842 530 118.732 530 81.4205H290ZM209.349 120C239.919 119.997 263.962 120.027 284.599 121.102C305.736 122.203 316.431 124.152 321.012 125.472C325.19 126.676 314.299 124.534 303.106 111.076C297.507 104.345 293.869 97.1328 291.855 90.7731C289.963 84.8 290 81.1846 290 81.4205H530C530 40.2383 519.199 -4.43178 487.621 -42.3975C457.377 -78.7582 418.61 -96.1678 387.482 -105.14C331.961 -121.143 261.324 -120.005 209.325 -120L209.349 120ZM205 120.001C206.458 120.001 207.91 120 209.349 120L209.325 -120C207.884 -120 206.444 -119.999 205 -119.999V120.001ZM200.651 120C202.09 120 203.542 120.001 205 120.001V-119.999C203.556 -119.999 202.116 -120 200.675 -120L200.651 120ZM120 81.4205C120 81.1846 120.037 84.8 118.145 90.7731C116.131 97.1328 112.493 104.345 106.894 111.076C95.7008 124.534 84.81 126.676 88.9884 125.472C93.5685 124.152 104.264 122.203 125.401 121.102C146.038 120.027 170.081 119.997 200.651 120L200.675 -120C148.676 -120.005 78.0391 -121.143 22.5183 -105.14C-8.60969 -96.1678 -47.3772 -78.7582 -77.6208 -42.3975C-109.199 -4.43178 -120 40.2383 -120 81.4205H120ZM193.106 40.9941C163.532 41.0172 140.518 41.0016 120.832 39.9732C100.64 38.9184 90.9437 37.0507 87.2598 35.9721C84.1212 35.0532 95.611 37.6572 107.017 51.6359C112.66 58.5517 116.24 65.8519 118.199 72.1639C120.04 78.0931 120 81.6653 120 81.4205H-120C-120 121.585 -109.729 165.626 -78.9357 203.365C-49.2456 239.752 -10.9849 257.283 19.8237 266.303C74.3197 282.258 143.473 281.033 193.294 280.994L193.106 40.9941ZM203.998 40.988C200.313 40.9884 196.667 40.9913 193.106 40.9941L193.294 280.994C196.872 280.991 200.436 280.988 204.027 280.988L203.998 40.988ZM205 40.988C204.69 40.988 204.336 40.9879 203.999 40.988L204.026 280.988C204.347 280.988 204.652 280.988 205 280.988V40.988ZM216.894 40.9941C213.009 40.9911 209.029 40.988 205 40.988V280.988C208.92 280.988 212.807 280.991 216.706 280.994L216.894 40.9941ZM238.422 40.9897C231.5 41.0054 224.384 41 216.894 40.9941L216.706 280.994C224.127 281 231.616 281.006 238.968 280.989L238.422 40.9897Z" fill="#AB04FF" mask="url(#path-1-inside-1_1_514)"/>
</svg>
