<svg width="165" height="67" viewBox="0 0 165 67" fill="none" xmlns="http://www.w3.org/2000/svg">
<mask id="path-1-inside-1_1034_2387" fill="white">
<path fill-rule="evenodd" clip-rule="evenodd" d="M96.0419 65.9903C93.1628 65.9972 90.2148 65.9949 87.2024 65.9925C85.6518 65.9913 84.0842 65.9901 82.5 65.9901C80.9158 65.9901 79.3482 65.9913 77.7976 65.9925C55.4265 66.01 36.6117 66.0247 23.125 62.3202C15.9249 60.3425 10.3493 57.3293 6.57765 52.7992C2.8356 48.3046 0.794543 42.2262 0.794543 33.8831C0.794543 25.5398 2.83586 19.4097 6.58201 14.8412C10.3562 10.2385 15.934 7.13111 23.1327 5.0583C37.2232 1.00105 57.136 1.00288 80.8402 1.00506C81.3914 1.00511 81.9447 1.00516 82.5 1.00516C83.0553 1.00516 83.6086 1.00511 84.1598 1.00506C107.864 1.00288 127.777 1.00105 141.867 5.0583C149.066 7.13111 154.644 10.2385 158.418 14.8412C162.164 19.4097 164.205 25.5398 164.205 33.8831C164.205 42.2262 162.164 48.3046 158.422 52.7992C154.651 57.3293 149.075 60.3425 141.875 62.3202C132.62 64.8623 120.856 65.653 107.156 65.8933C111.549 65.3361 115.792 64.6518 119.756 63.8695C125.336 62.7685 130.37 61.4723 134.503 60.0609C138.627 58.6528 141.886 57.1196 143.891 55.5291C144.077 55.3817 144.133 55.0716 144.016 54.8365C143.9 54.6014 143.655 54.5303 143.469 54.6777C141.568 56.1857 138.404 57.6882 134.296 59.0908C130.198 60.49 125.194 61.7794 119.633 62.8766C112.436 64.2969 104.316 65.3935 96.0419 65.9903ZM96.0602 66.9956C137.421 66.8982 165 64.906 165 33.8831C165 -0.0082164 132.085 -0.00481879 84.2453 0.000118511C83.6657 0.000178326 83.0839 0.000238368 82.5 0.000238368C81.9161 0.000238368 81.3343 0.000178327 80.7547 0.000118512C32.9146 -0.00481878 0 -0.0082164 0 33.8831C0 67.0603 31.5424 67.0349 77.7512 66.9975C79.1877 66.9964 80.6384 66.9952 82.1027 66.995C82.235 66.995 82.3675 66.995 82.5 66.995C84.0994 66.995 85.6825 66.9963 87.2488 66.9975C90.2493 67 93.188 67.0023 96.0602 66.9956Z"/>
</mask>
<path fill-rule="evenodd" clip-rule="evenodd" d="M96.0419 65.9903C93.1628 65.9972 90.2148 65.9949 87.2024 65.9925C85.6518 65.9913 84.0842 65.9901 82.5 65.9901C80.9158 65.9901 79.3482 65.9913 77.7976 65.9925C55.4265 66.01 36.6117 66.0247 23.125 62.3202C15.9249 60.3425 10.3493 57.3293 6.57765 52.7992C2.8356 48.3046 0.794543 42.2262 0.794543 33.8831C0.794543 25.5398 2.83586 19.4097 6.58201 14.8412C10.3562 10.2385 15.934 7.13111 23.1327 5.0583C37.2232 1.00105 57.136 1.00288 80.8402 1.00506C81.3914 1.00511 81.9447 1.00516 82.5 1.00516C83.0553 1.00516 83.6086 1.00511 84.1598 1.00506C107.864 1.00288 127.777 1.00105 141.867 5.0583C149.066 7.13111 154.644 10.2385 158.418 14.8412C162.164 19.4097 164.205 25.5398 164.205 33.8831C164.205 42.2262 162.164 48.3046 158.422 52.7992C154.651 57.3293 149.075 60.3425 141.875 62.3202C132.62 64.8623 120.856 65.653 107.156 65.8933C111.549 65.3361 115.792 64.6518 119.756 63.8695C125.336 62.7685 130.37 61.4723 134.503 60.0609C138.627 58.6528 141.886 57.1196 143.891 55.5291C144.077 55.3817 144.133 55.0716 144.016 54.8365C143.9 54.6014 143.655 54.5303 143.469 54.6777C141.568 56.1857 138.404 57.6882 134.296 59.0908C130.198 60.49 125.194 61.7794 119.633 62.8766C112.436 64.2969 104.316 65.3935 96.0419 65.9903ZM96.0602 66.9956C137.421 66.8982 165 64.906 165 33.8831C165 -0.0082164 132.085 -0.00481879 84.2453 0.000118511C83.6657 0.000178326 83.0839 0.000238368 82.5 0.000238368C81.9161 0.000238368 81.3343 0.000178327 80.7547 0.000118512C32.9146 -0.00481878 0 -0.0082164 0 33.8831C0 67.0603 31.5424 67.0349 77.7512 66.9975C79.1877 66.9964 80.6384 66.9952 82.1027 66.995C82.235 66.995 82.3675 66.995 82.5 66.995C84.0994 66.995 85.6825 66.9963 87.2488 66.9975C90.2493 67 93.188 67.0023 96.0602 66.9956Z" fill="#21073A"/>
<path d="M96.0419 65.9903L96.1319 103.99C97.0142 103.988 97.8961 103.955 98.776 103.892L96.0419 65.9903ZM87.2024 65.9925L87.1727 103.992L87.1728 103.992L87.2024 65.9925ZM77.7976 65.9925L77.8273 103.992L77.8273 103.992L77.7976 65.9925ZM23.125 62.3202L13.0601 98.963L13.0601 98.963L23.125 62.3202ZM6.57765 52.7992L-22.6257 77.1131L-22.6257 77.1131L6.57765 52.7992ZM6.58201 14.8412L-22.8022 -9.25378L6.58201 14.8412ZM23.1327 5.0583L33.6473 41.5746L33.6473 41.5746L23.1327 5.0583ZM80.8402 1.00506L80.8367 39.0051L80.8367 39.0051L80.8402 1.00506ZM84.1598 1.00506L84.1633 39.0051L84.1633 39.0051L84.1598 1.00506ZM141.867 5.0583L152.382 -31.458L152.382 -31.458L141.867 5.0583ZM158.418 14.8412L129.034 38.9361L129.034 38.9362L158.418 14.8412ZM158.422 52.7992L129.219 28.4853L129.219 28.4853L158.422 52.7992ZM141.875 62.3202L131.81 25.6774L131.81 25.6774L141.875 62.3202ZM107.156 65.8933L102.375 28.1953C82.3498 30.7352 67.8051 48.4881 69.2542 68.6213C70.7032 88.7545 87.6403 104.241 107.823 103.887L107.156 65.8933ZM119.756 63.8695L112.399 26.5884L112.399 26.5884L119.756 63.8695ZM134.503 60.0609L146.783 96.0222L146.783 96.0221L134.503 60.0609ZM143.891 55.5291L120.277 25.7567L120.277 25.7571L143.891 55.5291ZM144.016 54.8365L178.061 37.9564L178.06 37.9542L144.016 54.8365ZM143.469 54.6777L119.855 24.9058L119.854 24.9058L143.469 54.6777ZM134.296 59.0908L122.016 23.1296L122.016 23.1296L134.296 59.0908ZM119.633 62.8766L126.99 100.158L126.99 100.158L119.633 62.8766ZM96.0602 66.9956L96.1496 104.995L96.1497 104.995L96.0602 66.9956ZM84.2453 0.000118511L84.2414 -37.9999L84.2453 0.000118511ZM80.7547 0.000118512L80.7586 -37.9999L80.7547 0.000118512ZM77.7512 66.9975L77.7205 28.9975L77.7205 28.9975L77.7512 66.9975ZM82.1027 66.995L82.0983 28.995L82.098 28.995L82.1027 66.995ZM87.2488 66.9975L87.2181 104.998L87.2181 104.998L87.2488 66.9975ZM95.9518 27.9904C93.143 27.9971 90.2559 27.9949 87.2321 27.9925L87.1728 103.992C90.1738 103.995 93.1825 103.997 96.1319 103.99L95.9518 27.9904ZM87.2321 27.9925C85.6839 27.9913 84.1014 27.9901 82.5 27.9901V103.99C84.0669 103.99 85.6198 103.991 87.1727 103.992L87.2321 27.9925ZM82.5 27.9901C80.8986 27.9901 79.3161 27.9913 77.7679 27.9925L77.8273 103.992C79.3802 103.991 80.9331 103.99 82.5 103.99V27.9901ZM77.7679 27.9925C53.192 28.0117 40.5384 27.6958 33.1899 25.6774L13.0601 98.963C32.6849 104.354 57.661 104.008 77.8273 103.992L77.7679 27.9925ZM33.1899 25.6774C31.8512 25.3096 31.72 25.1273 32.2977 25.4546C32.97 25.8355 34.3525 26.7696 35.781 28.4853L-22.6257 77.1131C-12.1298 89.7197 1.54115 95.7991 13.0601 98.963L33.1899 25.6774ZM35.781 28.4853C37.2441 30.2426 38.1161 32.0539 38.5475 33.4323C38.9351 34.6702 38.7945 34.9987 38.7945 33.8831H-37.2055C-37.2055 48.6096 -33.4692 64.089 -22.6257 77.1131L35.781 28.4853ZM38.7945 33.8831C38.7945 32.773 38.9337 33.0594 38.569 34.2318C38.1636 35.5356 37.3428 37.2574 35.9662 38.9361L-22.8022 -9.25378C-33.4643 3.74878 -37.2055 19.1383 -37.2055 33.8831H38.7945ZM35.9662 38.9361C34.6218 40.5757 33.3233 41.4734 32.7003 41.8363C32.1666 42.1471 32.3217 41.9564 33.6473 41.5746L12.6182 -31.458C1.04901 -28.1268 -12.4647 -21.8606 -22.8022 -9.25378L35.9662 38.9361ZM33.6473 41.5746C41.3453 39.3581 54.7921 39.0027 80.8367 39.0051L80.8437 -36.9949C59.4798 -36.9969 33.1012 -37.356 12.6182 -31.458L33.6473 41.5746ZM80.8367 39.0051C81.3876 39.0051 81.9427 39.0052 82.5 39.0052V-36.9948C81.9467 -36.9948 81.3952 -36.9949 80.8437 -36.9949L80.8367 39.0051ZM82.5 39.0052C83.0573 39.0052 83.6124 39.0051 84.1633 39.0051L84.1563 -36.9949C83.6048 -36.9949 83.0533 -36.9948 82.5 -36.9948V39.0052ZM84.1633 39.0051C110.208 39.0027 123.655 39.3581 131.353 41.5746L152.382 -31.458C131.899 -37.356 105.52 -36.9969 84.1563 -36.9949L84.1633 39.0051ZM131.353 41.5746C132.678 41.9564 132.833 42.1471 132.3 41.8363C131.677 41.4734 130.378 40.5757 129.034 38.9361L187.802 -9.25374C177.465 -21.8606 163.951 -28.1268 152.382 -31.458L131.353 41.5746ZM129.034 38.9362C127.657 37.2574 126.836 35.5356 126.431 34.2318C126.066 33.0594 126.205 32.773 126.205 33.8831H202.205C202.205 19.1383 198.464 3.74876 187.802 -9.2538L129.034 38.9362ZM126.205 33.8831C126.205 34.9987 126.065 34.6702 126.452 33.4322C126.884 32.0539 127.756 30.2426 129.219 28.4853L187.626 77.1131C198.469 64.089 202.205 48.6096 202.205 33.8831H126.205ZM129.219 28.4853C130.647 26.7696 132.03 25.8355 132.702 25.4546C133.28 25.1273 133.149 25.3096 131.81 25.6774L151.94 98.963C163.459 95.7991 177.13 89.7197 187.626 77.1131L129.219 28.4853ZM131.81 25.6774C127.568 26.8426 120.014 27.6619 106.49 27.8992L107.823 103.887C121.698 103.644 137.673 102.882 151.94 98.963L131.81 25.6774ZM111.938 103.591C117.139 102.932 122.243 102.112 127.112 101.151L112.399 26.5884C109.34 27.192 105.959 27.7407 102.375 28.1953L111.938 103.591ZM127.112 101.151C133.86 99.8192 140.62 98.1266 146.783 96.0222L122.224 24.0997C120.12 24.818 116.811 25.7178 112.399 26.5884L127.112 101.151ZM146.783 96.0221C152.061 94.2199 160.307 91.0102 167.505 85.3011L120.277 25.7571C121.335 24.9178 122.186 24.3768 122.671 24.087C123.173 23.7875 123.491 23.6329 123.559 23.6002C123.657 23.5531 123.262 23.745 122.224 24.0997L146.783 96.0221ZM167.505 85.3015C183.765 72.4044 184.935 51.8187 178.061 37.9564L109.971 71.7165C106.083 63.875 105.374 55.6238 106.676 48.4404C107.952 41.3985 111.743 32.5257 120.277 25.7567L167.505 85.3015ZM178.06 37.9542C173.987 29.741 166.119 21.5278 154.347 18.1158C142.048 14.5509 129.266 17.4411 119.855 24.9058L167.083 84.4497C157.858 91.7669 145.291 94.6189 133.19 91.1115C121.616 87.7569 113.929 79.6969 109.972 71.7187L178.06 37.9542ZM119.854 24.9058C120.951 24.0358 121.836 23.4746 122.339 23.1744C122.861 22.8629 123.197 22.699 123.28 22.6594C123.408 22.5978 123.038 22.7808 122.016 23.1296L146.576 95.052C151.833 93.2568 159.987 90.0778 167.083 84.4497L119.854 24.9058ZM122.016 23.1296C119.949 23.8357 116.669 24.7287 112.277 25.5955L126.99 100.158C133.718 98.8301 140.448 97.1443 146.576 95.052L122.016 23.1296ZM112.277 25.5955C106.676 26.7008 100.103 27.5987 93.3078 28.0888L98.776 103.892C108.529 103.188 118.195 101.893 126.99 100.158L112.277 25.5955ZM127 33.8831C127 35.9752 126.592 33.6067 129.062 30.129C131.509 26.6834 134.086 25.9488 133.052 26.3251C131.624 26.8443 128.145 27.702 121.192 28.269C114.417 28.8215 106.248 28.9715 95.9707 28.9957L96.1497 104.995C115.087 104.951 139.507 104.848 159.029 97.7477C170.059 93.7359 182.116 86.6804 191.027 74.1331C199.96 61.5535 203 47.3025 203 33.8831H127ZM84.2492 38.0001C96.4881 37.9989 106.416 38.0088 115.002 38.4713C123.746 38.9422 128.861 39.7985 131.709 40.6474C134.352 41.4354 132.109 41.3509 129.5 38.1074C126.589 34.4891 127 31.7152 127 33.8831H203C203 19.1053 199.296 3.62256 188.719 -9.52684C178.444 -22.3015 164.982 -28.7394 153.417 -32.1863C132.617 -38.3857 105.735 -38.0021 84.2414 -37.9999L84.2492 38.0001ZM82.5 38.0002C83.0862 38.0002 83.67 38.0002 84.2492 38.0001L84.2414 -37.9999C83.6615 -37.9998 83.0817 -37.9998 82.5 -37.9998V38.0002ZM80.7508 38.0001C81.3301 38.0002 81.9138 38.0002 82.5 38.0002V-37.9998C81.9184 -37.9998 81.3385 -37.9998 80.7586 -37.9999L80.7508 38.0001ZM38 33.8831C38 31.7152 38.4107 34.4891 35.5003 38.1074C32.8913 41.3509 30.6475 41.4354 33.2915 40.6474C36.1394 39.7985 41.2537 38.9422 49.998 38.4713C58.5842 38.0088 68.5119 37.9989 80.7508 38.0001L80.7586 -37.9999C59.2648 -38.0021 32.3828 -38.3857 11.5832 -32.1863C0.0184769 -28.7394 -13.444 -22.3015 -23.7195 -9.52684C-34.2964 3.62256 -38 19.1053 -38 33.8831H38ZM77.7205 28.9975C65.8838 29.0071 56.3662 29.0034 48.158 28.56C39.7902 28.108 35.0629 27.2843 32.5584 26.5261C30.3041 25.8436 32.7785 26.094 35.4819 29.52C38.4171 33.2399 38 36.0507 38 33.8831H-38C-38 48.3041 -34.4743 63.5532 -24.1809 76.5982C-14.1192 89.3494 -0.871208 95.8119 10.5363 99.2655C30.8971 105.43 57.1529 105.014 77.7819 104.998L77.7205 28.9975ZM82.098 28.995C80.6183 28.9952 79.1542 28.9964 77.7205 28.9975L77.7819 104.998C79.2212 104.996 80.6585 104.995 82.1075 104.995L82.098 28.995ZM82.5 28.995C82.3737 28.995 82.2332 28.995 82.0983 28.995L82.1071 104.995C82.2369 104.995 82.3612 104.995 82.5 104.995V28.995ZM87.2796 28.9975C85.7156 28.9963 84.1172 28.995 82.5 28.995V104.995C84.0815 104.995 85.6494 104.996 87.2181 104.998L87.2796 28.9975ZM95.9707 28.9957C93.1691 29.0023 90.2914 29 87.2795 28.9975L87.2181 104.998C90.2072 105 93.2069 105.002 96.1496 104.995L95.9707 28.9957Z" fill="#AB04FF" mask="url(#path-1-inside-1_1034_2387)"/>
</svg>
