<svg width="249" height="117" viewBox="0 0 249 117" fill="none" xmlns="http://www.w3.org/2000/svg">
<mask id="path-1-inside-1_1_512" fill="white">
<path fill-rule="evenodd" clip-rule="evenodd" d="M144.936 115.237C140.591 115.249 136.142 115.245 131.596 115.241C129.256 115.239 126.891 115.236 124.5 115.236C122.109 115.236 119.744 115.239 117.404 115.241C83.6436 115.271 55.2504 115.297 34.8977 108.828C24.0321 105.374 15.618 100.112 9.92627 92.2016C4.27917 84.3529 1.19904 73.7384 1.19904 59.1689C1.19904 44.5993 4.27957 33.8945 9.93286 25.9167C15.6285 17.8791 24.0459 12.4528 34.9094 8.83315C56.1733 1.7481 86.2234 1.7513 121.995 1.7551C122.827 1.75519 123.662 1.75528 124.5 1.75528C125.338 1.75528 126.173 1.75519 127.005 1.7551C162.777 1.7513 192.827 1.7481 214.091 8.83315C224.954 12.4528 233.372 17.8791 239.067 25.9167C244.72 33.8945 247.801 44.5993 247.801 59.1689C247.801 73.7384 244.721 84.3529 239.074 92.2016C233.382 100.112 224.968 105.374 214.102 108.828C200.136 113.267 182.383 114.648 161.708 115.067C168.338 114.094 174.74 112.899 180.722 111.533C189.143 109.611 196.74 107.347 202.978 104.883C209.201 102.424 214.118 99.7462 217.144 96.9687C217.425 96.7113 217.51 96.1698 217.334 95.7592C217.158 95.3487 216.788 95.2246 216.507 95.482C213.638 98.1154 208.864 100.739 202.665 103.188C196.481 105.632 188.929 107.883 180.538 109.799C169.675 112.28 157.422 114.195 144.936 115.237ZM144.964 116.992C207.381 116.822 249 113.343 249 59.1689C249 -0.0143471 199.329 -0.00841489 127.134 0.000206952C126.259 0.000311406 125.381 0.000416254 124.5 0.000416254C123.619 0.000416254 122.741 0.000311407 121.866 0.000206953C49.6712 -0.00841489 0 -0.0143471 0 59.1689C0 117.105 47.6004 117.061 117.334 116.996C119.501 116.994 121.691 116.992 123.9 116.991C124.1 116.991 124.3 116.991 124.5 116.991C126.914 116.991 129.303 116.993 131.666 116.996C136.194 117 140.629 117.004 144.964 116.992Z"/>
</mask>
<path fill-rule="evenodd" clip-rule="evenodd" d="M144.936 115.237C140.591 115.249 136.142 115.245 131.596 115.241C129.256 115.239 126.891 115.236 124.5 115.236C122.109 115.236 119.744 115.239 117.404 115.241C83.6436 115.271 55.2504 115.297 34.8977 108.828C24.0321 105.374 15.618 100.112 9.92627 92.2016C4.27917 84.3529 1.19904 73.7384 1.19904 59.1689C1.19904 44.5993 4.27957 33.8945 9.93286 25.9167C15.6285 17.8791 24.0459 12.4528 34.9094 8.83315C56.1733 1.7481 86.2234 1.7513 121.995 1.7551C122.827 1.75519 123.662 1.75528 124.5 1.75528C125.338 1.75528 126.173 1.75519 127.005 1.7551C162.777 1.7513 192.827 1.7481 214.091 8.83315C224.954 12.4528 233.372 17.8791 239.067 25.9167C244.72 33.8945 247.801 44.5993 247.801 59.1689C247.801 73.7384 244.721 84.3529 239.074 92.2016C233.382 100.112 224.968 105.374 214.102 108.828C200.136 113.267 182.383 114.648 161.708 115.067C168.338 114.094 174.74 112.899 180.722 111.533C189.143 109.611 196.74 107.347 202.978 104.883C209.201 102.424 214.118 99.7462 217.144 96.9687C217.425 96.7113 217.51 96.1698 217.334 95.7592C217.158 95.3487 216.788 95.2246 216.507 95.482C213.638 98.1154 208.864 100.739 202.665 103.188C196.481 105.632 188.929 107.883 180.538 109.799C169.675 112.28 157.422 114.195 144.936 115.237ZM144.964 116.992C207.381 116.822 249 113.343 249 59.1689C249 -0.0143471 199.329 -0.00841489 127.134 0.000206952C126.259 0.000311406 125.381 0.000416254 124.5 0.000416254C123.619 0.000416254 122.741 0.000311407 121.866 0.000206953C49.6712 -0.00841489 0 -0.0143471 0 59.1689C0 117.105 47.6004 117.061 117.334 116.996C119.501 116.994 121.691 116.992 123.9 116.991C124.1 116.991 124.3 116.991 124.5 116.991C126.914 116.991 129.303 116.993 131.666 116.996C136.194 117 140.629 117.004 144.964 116.992Z" fill="#21073A"/>
<path d="M144.936 115.237L145.265 235.236C148.487 235.228 151.707 235.089 154.918 234.821L144.936 115.237ZM131.596 115.241L131.488 235.241H131.488L131.596 115.241ZM117.404 115.241L117.512 235.241H117.512L117.404 115.241ZM34.8977 108.828L-1.4518 223.19H-1.45179L34.8977 108.828ZM9.92627 92.2016L-87.4813 162.286L-87.4813 162.286L9.92627 92.2016ZM9.93286 25.9167L-87.9766 -43.4644L9.93286 25.9167ZM34.9094 8.83315L72.8428 122.68H72.8428L34.9094 8.83315ZM121.995 1.7551L121.982 121.755H121.982L121.995 1.7551ZM127.005 1.7551L127.018 121.755H127.018L127.005 1.7551ZM214.091 8.83315L252.024 -105.014L252.024 -105.014L214.091 8.83315ZM239.067 25.9167L141.158 95.2977L141.158 95.2978L239.067 25.9167ZM239.074 92.2016L141.666 22.1175L141.666 22.1176L239.074 92.2016ZM214.102 108.828L177.753 -5.5344L177.753 -5.53438L214.102 108.828ZM161.708 115.067L144.283 -3.6606C81.6004 5.53927 36.8685 61.8818 42.1215 125.017C47.3746 188.153 100.803 236.328 164.143 235.043L161.708 115.067ZM180.722 111.533L154.009 -5.45549L154.009 -5.45549L180.722 111.533ZM202.978 104.883L247.076 216.486L247.077 216.486L202.978 104.883ZM217.144 96.9687L136.003 8.55996L136.002 8.56112L217.144 96.9687ZM217.334 95.7592L327.635 48.4979L327.632 48.4915L217.334 95.7592ZM216.507 95.482L135.365 7.07466L135.365 7.07476L216.507 95.482ZM202.665 103.188L158.566 -8.41495L158.566 -8.41493L202.665 103.188ZM180.538 109.799L207.251 226.788H207.251L180.538 109.799ZM144.964 116.992L145.29 236.992H145.29L144.964 116.992ZM127.134 0.000206952L127.119 -120L127.134 0.000206952ZM121.866 0.000206953L121.881 -120L121.866 0.000206953ZM117.334 116.996L117.221 -3.00426H117.221L117.334 116.996ZM123.9 116.991L123.884 -3.00875L123.883 -3.00875L123.9 116.991ZM131.666 116.996L131.554 236.996H131.554L131.666 116.996ZM144.607 -4.76269C140.519 -4.75148 136.292 -4.75516 131.705 -4.7593L131.488 235.241C135.992 235.245 140.663 235.249 145.265 235.236L144.607 -4.76269ZM131.705 -4.7593C129.374 -4.76141 126.954 -4.76361 124.5 -4.76361V235.236C126.828 235.236 129.139 235.238 131.488 235.241L131.705 -4.7593ZM124.5 -4.76361C122.046 -4.76361 119.627 -4.76141 117.295 -4.7593L117.512 235.241C119.861 235.238 122.172 235.236 124.5 235.236V-4.76361ZM117.295 -4.7593C99.4659 -4.7432 87.6874 -4.7733 78.0228 -5.32993C67.9746 -5.90865 67.3665 -6.76786 71.2472 -5.53439L-1.45179 223.19C40.9079 236.654 91.6666 235.264 117.512 235.241L117.295 -4.7593ZM71.2472 -5.53439C76.8611 -3.75005 93.6548 3.10556 107.334 22.1176L-87.4813 162.286C-62.4189 197.119 -28.7969 214.498 -1.4518 223.19L71.2472 -5.53439ZM107.334 22.1176C120.707 40.7045 121.199 57.1858 121.199 59.1689H-118.801C-118.801 90.291 -112.149 128.001 -87.4813 162.286L107.334 22.1176ZM121.199 59.1689C121.199 61.2383 120.676 77.1874 107.842 95.2978L-87.9766 -43.4644C-112.117 -9.39837 -118.801 27.9602 -118.801 59.1689H121.199ZM107.842 95.2978C94.717 113.82 78.5378 120.782 72.8428 122.68L-3.02393 -105.014C-30.446 -95.8766 -63.4601 -78.0618 -87.9766 -43.4644L107.842 95.2978ZM72.8428 122.68C68.8122 124.023 69.5033 123.066 80.2465 122.418C90.5459 121.795 103.108 121.753 121.982 121.755L122.008 -118.245C94.6254 -118.248 41.1191 -119.722 -3.02394 -105.014L72.8428 122.68ZM121.982 121.755C122.813 121.755 123.655 121.755 124.5 121.755V-118.245C123.669 -118.245 122.841 -118.245 122.008 -118.245L121.982 121.755ZM124.5 121.755C125.345 121.755 126.187 121.755 127.018 121.755L126.992 -118.245C126.159 -118.245 125.331 -118.245 124.5 -118.245V121.755ZM127.018 121.755C145.892 121.753 158.454 121.795 168.754 122.418C179.497 123.066 180.188 124.023 176.157 122.68L252.024 -105.014C207.881 -119.722 154.375 -118.248 126.992 -118.245L127.018 121.755ZM176.157 122.68C170.462 120.782 154.283 113.82 141.158 95.2977L336.977 -43.4643C312.46 -78.0618 279.446 -95.8766 252.024 -105.014L176.157 122.68ZM141.158 95.2978C128.324 77.1874 127.801 61.2383 127.801 59.1689H367.801C367.801 27.9603 361.117 -9.3984 336.977 -43.4645L141.158 95.2978ZM127.801 59.1689C127.801 57.1857 128.293 40.7044 141.666 22.1175L336.481 162.286C361.149 128.001 367.801 90.2911 367.801 59.1689H127.801ZM141.666 22.1176C155.345 3.10562 172.139 -3.75003 177.753 -5.5344L250.452 223.19C277.797 214.498 311.419 197.119 336.481 162.286L141.666 22.1176ZM177.753 -5.53438C180.88 -6.52827 181.405 -6.27159 177.461 -5.84317C173.659 -5.43013 167.972 -5.08442 159.273 -4.90787L164.143 235.043C185.579 234.608 218.572 233.323 250.452 223.19L177.753 -5.53438ZM179.134 233.795C188.697 232.392 198.205 230.63 207.436 228.522L154.009 -5.45549C151.275 -4.83127 147.98 -4.20322 144.283 -3.6606L179.134 233.795ZM207.436 228.522C220.073 225.637 233.766 221.745 247.076 216.486L158.879 -6.72079C159.476 -6.95658 159.336 -6.87112 158.334 -6.57195C157.374 -6.28549 155.93 -5.89416 154.009 -5.45549L207.436 228.522ZM247.077 216.486C257.84 212.233 279.013 203.066 298.287 185.376L136.002 8.56112C143.605 1.58311 150.179 -2.29774 153.029 -3.8797C156.265 -5.67529 158.416 -6.53797 158.879 -6.72077L247.077 216.486ZM298.286 185.377C323.79 161.97 333.007 133.879 335.966 114.985C339.094 95.0063 337.56 71.6604 327.635 48.4979L107.032 143.02C97.2839 120.269 95.795 97.3987 98.8548 77.8578C101.745 59.4015 110.779 31.7102 136.003 8.55996L298.286 185.377ZM327.632 48.4915C317.91 25.8043 295.905 -4.72091 255.12 -18.4008C209.676 -33.643 164.564 -19.725 135.365 7.07466L297.65 183.889C268.732 210.432 223.944 224.283 178.8 209.141C138.313 195.561 116.582 165.304 107.035 143.027L327.632 48.4915ZM135.365 7.07476C143.091 -0.0172796 149.772 -3.9492 152.612 -5.52486C155.878 -7.33693 158.059 -8.21457 158.566 -8.41495L246.764 214.792C257.488 210.554 278.527 201.441 297.65 183.889L135.365 7.07476ZM158.566 -8.41493C159.191 -8.66187 159.076 -8.58464 158.094 -8.29143C157.156 -8.01113 155.73 -7.62446 153.824 -7.18937L207.251 226.788C219.858 223.91 233.507 220.03 246.764 214.792L158.566 -8.41493ZM153.824 -7.18938C148.694 -6.01808 142.042 -4.93892 134.954 -4.34722L154.918 234.821C172.803 233.328 190.656 230.578 207.251 226.788L153.824 -7.18938ZM129 59.1689C129 57.8601 129.23 44.5893 139.246 28.2684C150.05 10.6637 164.789 1.53756 173.839 -2.27124C180.838 -5.21712 183.515 -4.64831 176.277 -3.96531C169.53 -3.32857 160.008 -3.04917 144.637 -3.00729L145.29 236.992C170.429 236.923 222.363 237.696 266.938 218.936C294.195 207.464 323.24 187.3 343.798 153.801C363.568 121.586 369 87.565 369 59.1689H129ZM127.148 120C146.215 119.998 158.839 120.043 169.168 120.687C179.967 121.36 180.394 122.341 176.014 120.83C169.932 118.732 154.172 111.565 141.577 93.4468C129.394 75.9191 129 60.783 129 59.1689H369C369 27.9632 362.397 -9.36584 338.644 -43.5374C314.48 -78.2999 281.79 -96.5618 254.266 -106.055C228.444 -114.961 202.916 -117.676 184.097 -118.849C164.808 -120.051 144.15 -120.002 127.119 -120L127.148 120ZM124.5 120C125.39 120 126.275 120 127.148 120L127.119 -120C126.244 -120 125.373 -120 124.5 -120V120ZM121.852 120C122.725 120 123.61 120 124.5 120V-120C123.627 -120 122.756 -120 121.881 -120L121.852 120ZM120 59.1689C120 60.783 119.606 75.9191 107.423 93.4468C94.8281 111.565 79.0677 118.732 72.9859 120.83C68.6057 122.341 69.0328 121.36 79.8318 120.687C90.1607 120.043 102.785 119.998 121.852 120L121.881 -120C104.85 -120.002 84.1922 -120.051 64.9029 -118.849C46.0836 -117.676 20.5564 -114.961 -5.26598 -106.055C-32.7899 -96.5618 -65.4803 -78.2999 -89.6442 -43.5374C-113.397 -9.36584 -120 27.9632 -120 59.1689H120ZM117.221 -3.00426C98.7498 -2.98699 86.7835 -3.02386 77.0679 -3.63117C66.8819 -4.26788 67.1647 -5.17972 72.1928 -3.41822C79.0695 -1.00905 95.0986 6.61277 107.671 25.0495C119.678 42.6582 120 57.704 120 59.1689H-120C-120 89.6021 -113.728 126.369 -90.6163 160.261C-66.9401 194.982 -34.6526 213.452 -7.15908 223.084C18.4857 232.068 43.7436 234.754 62.0951 235.901C80.917 237.078 101.051 237.011 117.446 236.996L117.221 -3.00426ZM123.883 -3.00875C121.617 -3.00842 119.379 -3.00627 117.221 -3.00426L117.446 236.996C119.624 236.994 121.764 236.992 123.918 236.991L123.883 -3.00875ZM124.5 -3.00875C124.323 -3.00875 124.093 -3.00878 123.884 -3.00875L123.917 236.991C124.107 236.991 124.277 236.991 124.5 236.991V-3.00875ZM131.779 -3.00426C129.423 -3.00646 126.979 -3.00875 124.5 -3.00875V236.991C126.848 236.991 129.182 236.993 131.554 236.996L131.779 -3.00426ZM144.637 -3.00729C140.56 -2.99618 136.348 -2.99999 131.779 -3.00426L131.554 236.996C136.041 237 140.698 237.004 145.29 236.992L144.637 -3.00729Z" fill="#F8DC30" mask="url(#path-1-inside-1_1_512)"/>
</svg>
