<svg width="108" height="18" viewBox="0 0 108 18" fill="#fff" xmlns="http://www.w3.org/2000/svg">
<path d="M0 17.112L3.264 0.312H6.336L10.104 10.224L13.872 0.312H16.944L20.208 17.112H16.536L14.784 8.04L11.352 17.112H8.856L5.424 8.04L3.672 17.112H0Z"/>
<path d="M23.5659 17.112V0.312H34.2699V3.912H27.1659V6.312H32.6379V9.912H27.1659V13.512H34.2699V17.112H23.5659Z"/>
<path d="M50.1019 0.312V3.912H45.3019V17.112H41.7019V3.912H36.9019V0.312H50.1019Z"/>
<path d="M59.8181 17.424C58.6821 17.424 57.6141 17.2 56.6141 16.752C55.6141 16.296 54.7341 15.668 53.9741 14.868C53.2141 14.068 52.6181 13.144 52.1861 12.096C51.7541 11.04 51.5381 9.912 51.5381 8.712C51.5381 7.512 51.7541 6.388 52.1861 5.34C52.6181 4.284 53.2141 3.356 53.9741 2.556C54.7341 1.756 55.6141 1.132 56.6141 0.684C57.6141 0.228 58.6821 0 59.8181 0C60.9621 0 62.0341 0.228 63.0341 0.684C64.0341 1.132 64.9141 1.756 65.6741 2.556C66.4341 3.356 67.0261 4.284 67.4501 5.34C67.8821 6.388 68.0981 7.512 68.0981 8.712C68.0981 9.912 67.8821 11.04 67.4501 12.096C67.0261 13.144 66.4341 14.068 65.6741 14.868C64.9141 15.668 64.0341 16.296 63.0341 16.752C62.0341 17.2 60.9621 17.424 59.8181 17.424ZM59.8181 13.824C60.4581 13.824 61.0581 13.692 61.6181 13.428C62.1861 13.156 62.6861 12.788 63.1181 12.324C63.5501 11.852 63.8861 11.308 64.1261 10.692C64.3741 10.076 64.4981 9.416 64.4981 8.712C64.4981 8.008 64.3741 7.348 64.1261 6.732C63.8861 6.116 63.5501 5.576 63.1181 5.112C62.6861 4.64 62.1861 4.272 61.6181 4.008C61.0581 3.736 60.4581 3.6 59.8181 3.6C59.1781 3.6 58.5741 3.736 58.0061 4.008C57.4461 4.272 56.9501 4.64 56.5181 5.112C56.0861 5.576 55.7461 6.116 55.4981 6.732C55.2581 7.348 55.1381 8.008 55.1381 8.712C55.1381 9.416 55.2581 10.076 55.4981 10.692C55.7461 11.308 56.0861 11.852 56.5181 12.324C56.9501 12.788 57.4461 13.156 58.0061 13.428C58.5741 13.692 59.1781 13.824 59.8181 13.824Z"/>
<path d="M77.1109 17.424C76.1669 17.424 75.2629 17.276 74.3989 16.98C73.5349 16.676 72.7789 16.244 72.1309 15.684C71.4829 15.116 71.0149 14.44 70.7269 13.656L74.1109 12.408C74.1909 12.64 74.3669 12.864 74.6389 13.08C74.9189 13.296 75.2709 13.476 75.6949 13.62C76.1189 13.756 76.5909 13.824 77.1109 13.824C77.5909 13.824 78.0429 13.756 78.4669 13.62C78.8909 13.476 79.2349 13.28 79.4989 13.032C79.7629 12.784 79.8949 12.496 79.8949 12.168C79.8949 11.832 79.7549 11.556 79.4749 11.34C79.2029 11.116 78.8509 10.94 78.4189 10.812C77.9949 10.676 77.5589 10.576 77.1109 10.512C75.8949 10.336 74.8029 10.048 73.8349 9.648C72.8749 9.24 72.1149 8.68 71.5549 7.968C71.0029 7.256 70.7269 6.352 70.7269 5.256C70.7269 4.208 71.0229 3.292 71.6149 2.508C72.2069 1.716 72.9869 1.1 73.9549 0.660001C74.9309 0.22 75.9829 0 77.1109 0C78.0549 0 78.9589 0.152 79.8229 0.456001C80.6949 0.752001 81.4549 1.184 82.1029 1.752C82.7509 2.32 83.2149 3 83.4949 3.792L80.1109 5.016C80.0309 4.784 79.8509 4.564 79.5709 4.356C79.2989 4.14 78.9509 3.964 78.5269 3.828C78.1029 3.692 77.6309 3.624 77.1109 3.624C76.6469 3.616 76.2029 3.684 75.7789 3.828C75.3549 3.972 75.0069 4.168 74.7349 4.416C74.4629 4.664 74.3269 4.944 74.3269 5.256C74.3269 5.688 74.4549 6.012 74.7109 6.228C74.9669 6.436 75.3029 6.584 75.7189 6.672C76.1429 6.76 76.6069 6.84 77.1109 6.912C78.2629 7.08 79.3229 7.38 80.2909 7.812C81.2589 8.244 82.0349 8.82 82.6189 9.54C83.2029 10.26 83.4949 11.136 83.4949 12.168C83.4949 13.216 83.1989 14.136 82.6069 14.928C82.0229 15.712 81.2469 16.324 80.2789 16.764C79.3109 17.204 78.2549 17.424 77.1109 17.424Z"/>
<path d="M96.1629 0.312H99.7629V17.112H96.1629V9.912H90.2109V17.112H86.6109V0.312H90.2109V6.312H96.1629V0.312Z"/>
<path d="M103.717 17.112V0.312H107.317V17.112H103.717Z"/>
</svg>
